SplineFontDB: 3.0
FontName: FdSymbolE-Book
FullName: FdSymbolE-Book
FamilyName: FdSymbolE
Weight: Book
Copyright: Copyright (c) 2012, Michael Ummels. This Font Software is licensed under the SIL Open Font License, Version 1.1.
Version: 1.008
ItalicAngle: 0
UnderlinePosition: -100
UnderlineWidth: 50
Ascent: 800
Descent: 200
InvalidEm: 0
LayerCount: 2
Layer: 0 0 "Back" 1
Layer: 1 0 "Fore" 0
UniqueID: 4463955
OS2Version: 0
OS2_WeightWidthSlopeOnly: 0
OS2_UseTypoMetrics: 0
CreationTime: 1431875217
ModificationTime: 1431875217
OS2TypoAscent: 0
OS2TypoAOffset: 1
OS2TypoDescent: 0
OS2TypoDOffset: 1
OS2TypoLinegap: 0
OS2WinAscent: 0
OS2WinAOffset: 1
OS2WinDescent: 0
OS2WinDOffset: 1
HheadAscent: 0
HheadAOffset: 1
HheadDescent: 0
HheadDOffset: 1
OS2Vendor: 'PfEd'
DEI: 91125
Encoding: Custom
UnicodeInterp: none
NameList: AGL For New Fonts
DisplaySize: -48
AntiAlias: 1
FitToEm: 0
BeginPrivate: 2
BlueValues 31 [-10 0 546 556 707 717 754 764]
OtherBlues 11 [-230 -220]
EndPrivate
BeginChars: 256 128

StartChar: sym090
Encoding: 0 -1 0
Width: 1250
Flags: W
HStem: 243 64<90 593 657 1160>
VStem: 593 64<-260 243 307 810>
LayerCount: 2
Back
Fore
SplineSet
593 810 m 1
 657 810 l 1
 657 307 l 1
 1160 307 l 1
 1160 243 l 1
 657 243 l 1
 657 -260 l 1
 593 -260 l 1
 593 243 l 1
 90 243 l 1
 90 307 l 1
 593 307 l 1
 593 810 l 1
EndSplineSet
EndChar

StartChar: sym090.disp
Encoding: 1 -1 1
Width: 1678
Flags: W
HStem: 243 64<90 807 871 1588>
VStem: 807 64<-474 243 307 1024>
LayerCount: 2
Back
Fore
SplineSet
807 1024 m 1
 871 1024 l 1
 871 307 l 1
 1588 307 l 1
 1588 243 l 1
 871 243 l 1
 871 -474 l 1
 807 -474 l 1
 807 243 l 1
 90 243 l 1
 90 307 l 1
 807 307 l 1
 807 1024 l 1
EndSplineSet
EndChar

StartChar: uni2A09
Encoding: 2 10761 2
Width: 1250
Flags: W
LayerCount: 2
Back
Fore
SplineSet
1160 -215 m 1
 1115 -260 l 1
 625 230 l 1
 135 -260 l 1
 90 -215 l 1
 580 275 l 1
 90 765 l 1
 135 810 l 1
 625 320 l 1
 1115 810 l 1
 1160 765 l 1
 670 275 l 1
 1160 -215 l 1
EndSplineSet
EndChar

StartChar: uni2A09.disp
Encoding: 3 -1 3
Width: 1678
Flags: W
LayerCount: 2
Back
Fore
SplineSet
1588 -429 m 1
 1543 -474 l 1
 839 230 l 1
 135 -474 l 1
 90 -429 l 1
 794 275 l 1
 90 979 l 1
 135 1024 l 1
 839 320 l 1
 1543 1024 l 1
 1588 979 l 1
 884 275 l 1
 1588 -429 l 1
EndSplineSet
EndChar

StartChar: uni22C0
Encoding: 4 8896 4
Width: 900
Flags: W
LayerCount: 2
Back
Fore
SplineSet
805 -241 m 1
 744 -260 l 1
 450 672 l 1
 156 -260 l 1
 95 -241 l 1
 427 810 l 1
 473 810 l 1
 805 -241 l 1
EndSplineSet
EndChar

StartChar: uni22C0.disp
Encoding: 5 -1 5
Width: 1188
Flags: W
LayerCount: 2
Back
Fore
SplineSet
1093 -454 m 1
 1032 -474 l 1
 594 888 l 1
 156 -474 l 1
 95 -454 l 1
 571 1024 l 1
 617 1024 l 1
 1093 -454 l 1
EndSplineSet
EndChar

StartChar: uni22C1
Encoding: 6 8897 6
Width: 900
Flags: W
LayerCount: 2
Back
Fore
SplineSet
95 791 m 1
 156 810 l 1
 450 -122 l 1
 744 810 l 1
 805 791 l 1
 473 -260 l 1
 427 -260 l 1
 95 791 l 1
EndSplineSet
EndChar

StartChar: uni22C1.disp
Encoding: 7 -1 7
Width: 1188
Flags: W
LayerCount: 2
Back
Fore
SplineSet
95 1004 m 1
 156 1024 l 1
 594 -338 l 1
 1032 1024 l 1
 1093 1004 l 1
 617 -474 l 1
 571 -474 l 1
 95 1004 l 1
EndSplineSet
EndChar

StartChar: sym091
Encoding: 8 -1 8
Width: 900
Flags: W
HStem: -67 150<413.367 486.633>
VStem: 375 150<-29.1393 44.1477>
LayerCount: 2
Back
Fore
SplineSet
805 -241 m 1
 744 -260 l 1
 450 672 l 1
 156 -260 l 1
 95 -241 l 1
 427 810 l 1
 473 810 l 1
 805 -241 l 1
525 8 m 0
 525 -7 508 -24 495 -38 c 0
 482 -51 465 -67 450 -67 c 0
 435 -67 418 -51 405 -38 c 0
 392 -24 375 -7 375 8 c 0
 375 22 392 39 405 53 c 0
 418 66 435 83 450 83 c 0
 465 83 482 66 495 53 c 0
 508 39 525 22 525 8 c 0
EndSplineSet
EndChar

StartChar: sym091.disp
Encoding: 9 -1 9
Width: 1188
Flags: W
HStem: -174 150<557.367 630.633>
VStem: 519 150<-135.633 -62.8523>
LayerCount: 2
Back
Fore
SplineSet
1093 -454 m 1
 1032 -474 l 1
 594 888 l 1
 156 -474 l 1
 95 -454 l 1
 571 1024 l 1
 617 1024 l 1
 1093 -454 l 1
669 -99 m 0
 669 -114 652 -131 639 -144 c 0
 626 -158 609 -174 594 -174 c 0
 579 -174 562 -158 549 -144 c 0
 536 -131 519 -114 519 -99 c 0
 519 -85 536 -68 549 -54 c 0
 562 -41 579 -24 594 -24 c 0
 609 -24 626 -41 639 -54 c 0
 652 -68 669 -85 669 -99 c 0
EndSplineSet
EndChar

StartChar: sym092
Encoding: 10 -1 10
Width: 900
Flags: W
HStem: 468 150<413.367 486.633>
VStem: 375 150<505.861 579.148>
LayerCount: 2
Back
Fore
SplineSet
95 791 m 1
 156 810 l 1
 450 -122 l 1
 744 810 l 1
 805 791 l 1
 473 -260 l 1
 427 -260 l 1
 95 791 l 1
525 543 m 0
 525 528 508 511 495 497 c 0
 482 484 465 468 450 468 c 0
 435 468 418 484 405 497 c 0
 392 511 375 528 375 543 c 0
 375 557 392 574 405 588 c 0
 418 601 435 618 450 618 c 0
 465 618 482 601 495 588 c 0
 508 574 525 557 525 543 c 0
EndSplineSet
EndChar

StartChar: sym092.disp
Encoding: 11 -1 11
Width: 1188
Flags: W
HStem: 574 150<557.367 630.633>
VStem: 519 150<612.852 685.633>
LayerCount: 2
Back
Fore
SplineSet
95 1004 m 1
 156 1024 l 1
 594 -338 l 1
 1032 1024 l 1
 1093 1004 l 1
 617 -474 l 1
 571 -474 l 1
 95 1004 l 1
669 649 m 0
 669 635 652 618 639 604 c 0
 626 591 609 574 594 574 c 0
 579 574 562 591 549 604 c 0
 536 618 519 635 519 649 c 0
 519 664 536 681 549 694 c 0
 562 708 579 724 594 724 c 0
 609 724 626 708 639 694 c 0
 652 681 669 664 669 649 c 0
EndSplineSet
EndChar

StartChar: uni2A07
Encoding: 12 10759 12
Width: 1140
Flags: W
LayerCount: 2
Back
Fore
SplineSet
1045 -241 m 1
 984 -260 l 1
 690 672 l 1
 603 397 l 1
 805 -241 l 1
 744 -260 l 1
 570 292 l 1
 396 -260 l 1
 335 -241 l 1
 537 397 l 1
 450 672 l 1
 156 -260 l 1
 95 -241 l 1
 427 810 l 1
 473 810 l 1
 570 503 l 1
 667 810 l 1
 713 810 l 1
 1045 -241 l 1
EndSplineSet
EndChar

StartChar: uni2A07.disp
Encoding: 13 -1 13
Width: 1524
Flags: W
LayerCount: 2
Back
Fore
SplineSet
1429 -454 m 1
 1368 -474 l 1
 930 888 l 1
 795 470 l 1
 1093 -454 l 1
 1032 -474 l 1
 762 366 l 1
 492 -474 l 1
 431 -454 l 1
 729 470 l 1
 594 888 l 1
 156 -474 l 1
 95 -454 l 1
 571 1024 l 1
 617 1024 l 1
 762 574 l 1
 907 1024 l 1
 953 1024 l 1
 1429 -454 l 1
EndSplineSet
EndChar

StartChar: uni2A08
Encoding: 14 10760 14
Width: 1140
Flags: W
LayerCount: 2
Back
Fore
SplineSet
335 791 m 1
 396 810 l 1
 570 258 l 1
 744 810 l 1
 805 791 l 1
 603 153 l 1
 690 -122 l 1
 984 810 l 1
 1045 791 l 1
 713 -260 l 1
 667 -260 l 1
 570 47 l 1
 473 -260 l 1
 427 -260 l 1
 95 791 l 1
 156 810 l 1
 450 -122 l 1
 537 153 l 1
 335 791 l 1
EndSplineSet
EndChar

StartChar: uni2A08.disp
Encoding: 15 -1 15
Width: 1524
Flags: W
LayerCount: 2
Back
Fore
SplineSet
431 1004 m 1
 492 1024 l 1
 762 184 l 1
 1032 1024 l 1
 1093 1004 l 1
 795 80 l 1
 930 -338 l 1
 1368 1024 l 1
 1429 1004 l 1
 953 -474 l 1
 907 -474 l 1
 762 -24 l 1
 617 -474 l 1
 571 -474 l 1
 95 1004 l 1
 156 1024 l 1
 594 -338 l 1
 729 80 l 1
 431 1004 l 1
EndSplineSet
EndChar

StartChar: sym093
Encoding: 16 -1 16
Width: 900
Flags: W
VStem: 418 64<555.456 810>
LayerCount: 2
Back
Fore
SplineSet
450 361 m 1
 409 125 320 -96 144 -260 c 1
 100 -213 l 1
 365 34 418 414 418 778 c 2
 418 810 l 1
 482 810 l 1
 482 778 l 2
 482 414 535 34 800 -213 c 1
 756 -260 l 1
 580 -96 491 125 450 361 c 1
EndSplineSet
EndChar

StartChar: sym093.disp
Encoding: 17 -1 17
Width: 1188
Flags: W
VStem: 562 64<771.431 1024>
LayerCount: 2
Back
Fore
SplineSet
594 493 m 1
 542 125 415 -221 144 -474 c 1
 100 -427 l 1
 480 -73 562 471 562 992 c 2
 562 1024 l 1
 626 1024 l 1
 626 992 l 2
 626 471 708 -73 1088 -427 c 1
 1044 -474 l 1
 773 -221 646 125 594 493 c 1
EndSplineSet
EndChar

StartChar: sym094
Encoding: 18 -1 18
Width: 900
Flags: W
VStem: 418 64<-260 -5.45578>
LayerCount: 2
Back
Fore
SplineSet
450 189 m 1
 491 425 580 646 756 810 c 1
 800 763 l 1
 535 516 482 136 482 -228 c 2
 482 -260 l 1
 418 -260 l 1
 418 -228 l 2
 418 136 365 516 100 763 c 1
 144 810 l 1
 320 646 409 425 450 189 c 1
EndSplineSet
EndChar

StartChar: sym094.disp
Encoding: 19 -1 19
Width: 1188
Flags: W
VStem: 562 64<-474 -221.431>
LayerCount: 2
Back
Fore
SplineSet
594 57 m 1
 646 425 773 771 1044 1024 c 1
 1088 977 l 1
 708 623 626 79 626 -442 c 2
 626 -474 l 1
 562 -474 l 1
 562 -442 l 2
 562 79 480 623 100 977 c 1
 144 1024 l 1
 415 771 542 425 594 57 c 1
EndSplineSet
EndChar

StartChar: uni22C2
Encoding: 20 8898 20
Width: 900
Flags: W
HStem: 746 64<330.376 569.624>
VStem: 90 64<-260 584.428> 746 64<-260 584.428>
LayerCount: 2
Back
Fore
SplineSet
746 -260 m 1
 746 495 l 2
 746 643 606 746 450 746 c 0
 294 746 154 643 154 495 c 2
 154 -260 l 1
 90 -260 l 1
 90 495 l 2
 90 678 259 810 450 810 c 0
 641 810 810 678 810 495 c 2
 810 -260 l 1
 746 -260 l 1
EndSplineSet
EndChar

StartChar: uni22C2.disp
Encoding: 21 -1 21
Width: 1188
Flags: W
HStem: 960 64<447.345 740.655>
VStem: 90 64<-474 695.83> 1034 64<-474 695.83>
LayerCount: 2
Back
Fore
SplineSet
1034 -474 m 1
 1034 581 l 2
 1034 803 827 960 594 960 c 0
 361 960 154 803 154 581 c 2
 154 -474 l 1
 90 -474 l 1
 90 581 l 2
 90 838 326 1024 594 1024 c 0
 862 1024 1098 838 1098 581 c 2
 1098 -474 l 1
 1034 -474 l 1
EndSplineSet
EndChar

StartChar: uni22C3
Encoding: 22 8899 22
Width: 900
Flags: W
HStem: -260 64<330.376 569.624>
VStem: 90 64<-34.4283 810> 746 64<-34.4283 810>
LayerCount: 2
Back
Fore
SplineSet
154 810 m 1
 154 55 l 2
 154 -93 294 -196 450 -196 c 0
 606 -196 746 -93 746 55 c 2
 746 810 l 1
 810 810 l 1
 810 55 l 2
 810 -128 641 -260 450 -260 c 0
 259 -260 90 -128 90 55 c 2
 90 810 l 1
 154 810 l 1
EndSplineSet
EndChar

StartChar: uni22C3.disp
Encoding: 23 -1 23
Width: 1188
Flags: W
HStem: -474 64<447.345 740.655>
VStem: 90 64<-145.83 1024> 1034 64<-145.83 1024>
LayerCount: 2
Back
Fore
SplineSet
154 1024 m 1
 154 -31 l 2
 154 -253 361 -410 594 -410 c 0
 827 -410 1034 -253 1034 -31 c 2
 1034 1024 l 1
 1098 1024 l 1
 1098 -31 l 2
 1098 -288 862 -474 594 -474 c 0
 326 -474 90 -288 90 -31 c 2
 90 1024 l 1
 154 1024 l 1
EndSplineSet
EndChar

StartChar: sym095
Encoding: 24 -1 24
Width: 900
Flags: W
HStem: 66 150<413.367 486.633> 746 64<330.376 569.624>
VStem: 90 64<-260 584.428> 375 150<104.754 177.633> 746 64<-260 584.428>
CounterMasks: 1 38
LayerCount: 2
Back
Fore
SplineSet
746 -260 m 1
 746 495 l 2
 746 643 606 746 450 746 c 0
 294 746 154 643 154 495 c 2
 154 -260 l 1
 90 -260 l 1
 90 495 l 2
 90 678 259 810 450 810 c 0
 641 810 810 678 810 495 c 2
 810 -260 l 1
 746 -260 l 1
525 141 m 0
 525 126 508 110 495 96 c 0
 482 83 465 66 450 66 c 0
 435 66 418 83 405 96 c 0
 392 110 375 126 375 141 c 0
 375 156 392 173 405 186 c 0
 418 200 435 216 450 216 c 0
 465 216 482 200 495 186 c 0
 508 173 525 156 525 141 c 0
EndSplineSet
EndChar

StartChar: sym095.disp
Encoding: 25 -1 25
Width: 1188
Flags: W
HStem: 13 150<557.367 630.633> 960 64<447.345 740.655>
VStem: 90 64<-474 695.83> 519 150<51.3667 124.246> 1034 64<-474 695.83>
CounterMasks: 1 38
LayerCount: 2
Back
Fore
SplineSet
1034 -474 m 1
 1034 581 l 2
 1034 803 827 960 594 960 c 0
 361 960 154 803 154 581 c 2
 154 -474 l 1
 90 -474 l 1
 90 581 l 2
 90 838 326 1024 594 1024 c 0
 862 1024 1098 838 1098 581 c 2
 1098 -474 l 1
 1034 -474 l 1
669 88 m 0
 669 73 652 56 639 43 c 0
 626 29 609 13 594 13 c 0
 579 13 562 29 549 43 c 0
 536 56 519 73 519 88 c 0
 519 103 536 119 549 133 c 0
 562 146 579 163 594 163 c 0
 609 163 626 146 639 133 c 0
 652 119 669 103 669 88 c 0
EndSplineSet
EndChar

StartChar: uni2A03
Encoding: 26 10755 26
Width: 900
Flags: W
HStem: -260 64<330.376 569.624> 334 150<413.367 486.633>
VStem: 90 64<-34.4283 810> 375 150<372.367 445.246> 746 64<-34.4283 810>
CounterMasks: 1 38
LayerCount: 2
Back
Fore
SplineSet
154 810 m 1
 154 55 l 2
 154 -93 294 -196 450 -196 c 0
 606 -196 746 -93 746 55 c 2
 746 810 l 1
 810 810 l 1
 810 55 l 2
 810 -128 641 -260 450 -260 c 0
 259 -260 90 -128 90 55 c 2
 90 810 l 1
 154 810 l 1
525 409 m 0
 525 394 508 377 495 364 c 0
 482 350 465 334 450 334 c 0
 435 334 418 350 405 364 c 0
 392 377 375 394 375 409 c 0
 375 424 392 440 405 454 c 0
 418 467 435 484 450 484 c 0
 465 484 482 467 495 454 c 0
 508 440 525 424 525 409 c 0
EndSplineSet
EndChar

StartChar: uni2A03.disp
Encoding: 27 -1 27
Width: 1188
Flags: W
HStem: -474 64<447.345 740.655> 387 150<557.367 630.633>
VStem: 90 64<-145.83 1024> 519 150<425.754 498.633> 1034 64<-145.83 1024>
CounterMasks: 1 38
LayerCount: 2
Back
Fore
SplineSet
154 1024 m 1
 154 -31 l 2
 154 -253 361 -410 594 -410 c 0
 827 -410 1034 -253 1034 -31 c 2
 1034 1024 l 1
 1098 1024 l 1
 1098 -31 l 2
 1098 -288 862 -474 594 -474 c 0
 326 -474 90 -288 90 -31 c 2
 90 1024 l 1
 154 1024 l 1
669 462 m 0
 669 447 652 431 639 417 c 0
 626 404 609 387 594 387 c 0
 579 387 562 404 549 417 c 0
 536 431 519 447 519 462 c 0
 519 477 536 494 549 507 c 0
 562 521 579 537 594 537 c 0
 609 537 626 521 639 507 c 0
 652 494 669 477 669 462 c 0
EndSplineSet
EndChar

StartChar: sym096
Encoding: 28 -1 28
Width: 900
Flags: W
HStem: 153 64<270 418 482 630> 746 64<330.376 569.624>
VStem: 90 64<-260 584.428> 418 64<5 153 217 365> 746 64<-260 584.428>
CounterMasks: 1 38
LayerCount: 2
Back
Fore
SplineSet
746 -260 m 1
 746 495 l 2
 746 643 606 746 450 746 c 0
 294 746 154 643 154 495 c 2
 154 -260 l 1
 90 -260 l 1
 90 495 l 2
 90 678 259 810 450 810 c 0
 641 810 810 678 810 495 c 2
 810 -260 l 1
 746 -260 l 1
418 365 m 1
 482 365 l 1
 482 217 l 1
 630 217 l 1
 630 153 l 1
 482 153 l 1
 482 5 l 1
 418 5 l 1
 418 153 l 1
 270 153 l 1
 270 217 l 1
 418 217 l 1
 418 365 l 1
EndSplineSet
EndChar

StartChar: sym096.disp
Encoding: 29 -1 29
Width: 1188
Flags: W
HStem: 117 64<342 562 626 846> 960 64<447.345 740.655>
VStem: 90 64<-474 695.83> 562 64<-103 117 181 401> 1034 64<-474 695.83>
CounterMasks: 1 38
LayerCount: 2
Back
Fore
SplineSet
1034 -474 m 1
 1034 581 l 2
 1034 803 827 960 594 960 c 0
 361 960 154 803 154 581 c 2
 154 -474 l 1
 90 -474 l 1
 90 581 l 2
 90 838 326 1024 594 1024 c 0
 862 1024 1098 838 1098 581 c 2
 1098 -474 l 1
 1034 -474 l 1
562 401 m 1
 626 401 l 1
 626 181 l 1
 846 181 l 1
 846 117 l 1
 626 117 l 1
 626 -103 l 1
 562 -103 l 1
 562 117 l 1
 342 117 l 1
 342 181 l 1
 562 181 l 1
 562 401 l 1
EndSplineSet
EndChar

StartChar: uni2A04
Encoding: 30 10756 30
Width: 900
Flags: W
HStem: -260 64<330.376 569.624> 333 64<270 418 482 630> 525 20G<418 482>
VStem: 90 64<-34.4283 810> 418 64<185 333 397 545> 746 64<-34.4283 810>
CounterMasks: 1 1c
LayerCount: 2
Back
Fore
SplineSet
154 810 m 1
 154 55 l 2
 154 -93 294 -196 450 -196 c 0
 606 -196 746 -93 746 55 c 2
 746 810 l 1
 810 810 l 1
 810 55 l 2
 810 -128 641 -260 450 -260 c 0
 259 -260 90 -128 90 55 c 2
 90 810 l 1
 154 810 l 1
418 545 m 1
 482 545 l 1
 482 397 l 1
 630 397 l 1
 630 333 l 1
 482 333 l 1
 482 185 l 1
 418 185 l 1
 418 333 l 1
 270 333 l 1
 270 397 l 1
 418 397 l 1
 418 545 l 1
EndSplineSet
EndChar

StartChar: uni2A04.disp
Encoding: 31 -1 31
Width: 1188
Flags: W
HStem: -474 64<447.345 740.655> 369 64<342 562 626 846>
VStem: 90 64<-145.83 1024> 562 64<149 369 433 653> 1034 64<-145.83 1024>
CounterMasks: 1 38
LayerCount: 2
Back
Fore
SplineSet
154 1024 m 1
 154 -31 l 2
 154 -253 361 -410 594 -410 c 0
 827 -410 1034 -253 1034 -31 c 2
 1034 1024 l 1
 1098 1024 l 1
 1098 -31 l 2
 1098 -288 862 -474 594 -474 c 0
 326 -474 90 -288 90 -31 c 2
 90 1024 l 1
 154 1024 l 1
562 653 m 1
 626 653 l 1
 626 433 l 1
 846 433 l 1
 846 369 l 1
 626 369 l 1
 626 149 l 1
 562 149 l 1
 562 369 l 1
 342 369 l 1
 342 433 l 1
 562 433 l 1
 562 653 l 1
EndSplineSet
EndChar

StartChar: uni2A05
Encoding: 32 10757 32
Width: 900
Flags: W
HStem: 746 64<154 746>
VStem: 90 64<-260 746> 746 64<-260 746>
LayerCount: 2
Back
Fore
SplineSet
154 -260 m 1
 90 -260 l 1
 90 97 90 453 90 810 c 1
 810 810 l 1
 810 453 810 97 810 -260 c 1
 746 -260 l 1
 746 746 l 1
 154 746 l 1
 154 -260 l 1
EndSplineSet
EndChar

StartChar: uni2A05.disp
Encoding: 33 -1 33
Width: 1188
Flags: W
HStem: 960 64<154 1034>
VStem: 90 64<-474 960> 1034 64<-474 960>
LayerCount: 2
Back
Fore
SplineSet
154 -474 m 1
 90 -474 l 1
 90 25 90 525 90 1024 c 1
 1098 1024 l 1
 1098 525 1098 25 1098 -474 c 1
 1034 -474 l 1
 1034 960 l 1
 154 960 l 1
 154 -474 l 1
EndSplineSet
EndChar

StartChar: uni2A06
Encoding: 34 10758 34
Width: 900
Flags: W
HStem: -260 64<154 746>
VStem: 90 64<-196 810> 746 64<-196 810>
LayerCount: 2
Back
Fore
SplineSet
90 810 m 1
 154 810 l 1
 154 -196 l 1
 746 -196 l 1
 746 810 l 1
 810 810 l 1
 810 453 810 97 810 -260 c 1
 90 -260 l 1
 90 97 90 453 90 810 c 1
EndSplineSet
EndChar

StartChar: uni2A06.disp
Encoding: 35 -1 35
Width: 1188
Flags: W
HStem: -474 64<154 1034>
VStem: 90 64<-410 1024> 1034 64<-410 1024>
LayerCount: 2
Back
Fore
SplineSet
90 1024 m 1
 154 1024 l 1
 154 -410 l 1
 1034 -410 l 1
 1034 1024 l 1
 1098 1024 l 1
 1098 525 1098 25 1098 -474 c 1
 90 -474 l 1
 90 25 90 525 90 1024 c 1
EndSplineSet
EndChar

StartChar: sym097
Encoding: 36 -1 36
Width: 900
Flags: W
HStem: 66 150<413.367 486.633> 746 64<154 746>
VStem: 90 64<-260 746> 375 150<104.754 177.633> 746 64<-260 746>
CounterMasks: 1 38
LayerCount: 2
Back
Fore
SplineSet
154 -260 m 1
 90 -260 l 1
 90 97 90 453 90 810 c 1
 810 810 l 1
 810 453 810 97 810 -260 c 1
 746 -260 l 1
 746 746 l 1
 154 746 l 1
 154 -260 l 1
525 141 m 0
 525 126 508 110 495 96 c 0
 482 83 465 66 450 66 c 0
 435 66 418 83 405 96 c 0
 392 110 375 126 375 141 c 0
 375 156 392 173 405 186 c 0
 418 200 435 216 450 216 c 0
 465 216 482 200 495 186 c 0
 508 173 525 156 525 141 c 0
EndSplineSet
EndChar

StartChar: sym097.disp
Encoding: 37 -1 37
Width: 1188
Flags: W
HStem: 13 150<557.367 630.633> 960 64<154 1034>
VStem: 90 64<-474 960> 519 150<51.3667 124.246> 1034 64<-474 960>
CounterMasks: 1 38
LayerCount: 2
Back
Fore
SplineSet
154 -474 m 1
 90 -474 l 1
 90 25 90 525 90 1024 c 1
 1098 1024 l 1
 1098 525 1098 25 1098 -474 c 1
 1034 -474 l 1
 1034 960 l 1
 154 960 l 1
 154 -474 l 1
669 88 m 0
 669 73 652 56 639 43 c 0
 626 29 609 13 594 13 c 0
 579 13 562 29 549 43 c 0
 536 56 519 73 519 88 c 0
 519 103 536 119 549 133 c 0
 562 146 579 163 594 163 c 0
 609 163 626 146 639 133 c 0
 652 119 669 103 669 88 c 0
EndSplineSet
EndChar

StartChar: sym098
Encoding: 38 -1 38
Width: 900
Flags: W
HStem: -260 64<154 746> 334 150<413.367 486.633>
VStem: 90 64<-196 810> 375 150<372.367 445.246> 746 64<-196 810>
CounterMasks: 1 38
LayerCount: 2
Back
Fore
SplineSet
90 810 m 1
 154 810 l 1
 154 -196 l 1
 746 -196 l 1
 746 810 l 1
 810 810 l 1
 810 453 810 97 810 -260 c 1
 90 -260 l 1
 90 97 90 453 90 810 c 1
525 409 m 0
 525 394 508 377 495 364 c 0
 482 350 465 334 450 334 c 0
 435 334 418 350 405 364 c 0
 392 377 375 394 375 409 c 0
 375 424 392 440 405 454 c 0
 418 467 435 484 450 484 c 0
 465 484 482 467 495 454 c 0
 508 440 525 424 525 409 c 0
EndSplineSet
EndChar

StartChar: sym098.disp
Encoding: 39 -1 39
Width: 1188
Flags: W
HStem: -474 64<154 1034> 387 150<557.367 630.633>
VStem: 90 64<-410 1024> 519 150<425.754 498.633> 1034 64<-410 1024>
CounterMasks: 1 38
LayerCount: 2
Back
Fore
SplineSet
90 1024 m 1
 154 1024 l 1
 154 -410 l 1
 1034 -410 l 1
 1034 1024 l 1
 1098 1024 l 1
 1098 525 1098 25 1098 -474 c 1
 90 -474 l 1
 90 25 90 525 90 1024 c 1
669 462 m 0
 669 447 652 431 639 417 c 0
 626 404 609 387 594 387 c 0
 579 387 562 404 549 417 c 0
 536 431 519 447 519 462 c 0
 519 477 536 494 549 507 c 0
 562 521 579 537 594 537 c 0
 609 537 626 521 639 507 c 0
 652 494 669 477 669 462 c 0
EndSplineSet
EndChar

StartChar: sym099
Encoding: 40 -1 40
Width: 900
Flags: W
HStem: 153 64<270 418 482 630> 746 64<154 746>
VStem: 90 64<-260 746> 418 64<5 153 217 365> 746 64<-260 746>
CounterMasks: 1 38
LayerCount: 2
Back
Fore
SplineSet
154 -260 m 1
 90 -260 l 1
 90 97 90 453 90 810 c 1
 810 810 l 1
 810 453 810 97 810 -260 c 1
 746 -260 l 1
 746 746 l 1
 154 746 l 1
 154 -260 l 1
418 365 m 1
 482 365 l 1
 482 217 l 1
 630 217 l 1
 630 153 l 1
 482 153 l 1
 482 5 l 1
 418 5 l 1
 418 153 l 1
 270 153 l 1
 270 217 l 1
 418 217 l 1
 418 365 l 1
EndSplineSet
EndChar

StartChar: sym099.disp
Encoding: 41 -1 41
Width: 1188
Flags: W
HStem: 117 64<342 562 626 846> 960 64<154 1034>
VStem: 90 64<-474 960> 562 64<-103 117 181 401> 1034 64<-474 960>
CounterMasks: 1 38
LayerCount: 2
Back
Fore
SplineSet
154 -474 m 1
 90 -474 l 1
 90 25 90 525 90 1024 c 1
 1098 1024 l 1
 1098 525 1098 25 1098 -474 c 1
 1034 -474 l 1
 1034 960 l 1
 154 960 l 1
 154 -474 l 1
562 401 m 1
 626 401 l 1
 626 181 l 1
 846 181 l 1
 846 117 l 1
 626 117 l 1
 626 -103 l 1
 562 -103 l 1
 562 117 l 1
 342 117 l 1
 342 181 l 1
 562 181 l 1
 562 401 l 1
EndSplineSet
EndChar

StartChar: sym09A
Encoding: 42 -1 42
Width: 900
Flags: W
HStem: -260 64<154 746> 333 64<270 418 482 630> 525 20G<418 482>
VStem: 90 64<-196 810> 418 64<185 333 397 545> 746 64<-196 810>
CounterMasks: 1 1c
LayerCount: 2
Back
Fore
SplineSet
90 810 m 1
 154 810 l 1
 154 -196 l 1
 746 -196 l 1
 746 810 l 1
 810 810 l 1
 810 453 810 97 810 -260 c 1
 90 -260 l 1
 90 97 90 453 90 810 c 1
418 545 m 1
 482 545 l 1
 482 397 l 1
 630 397 l 1
 630 333 l 1
 482 333 l 1
 482 185 l 1
 418 185 l 1
 418 333 l 1
 270 333 l 1
 270 397 l 1
 418 397 l 1
 418 545 l 1
EndSplineSet
EndChar

StartChar: sym09A.disp
Encoding: 43 -1 43
Width: 1188
Flags: W
HStem: -474 64<154 1034> 369 64<342 562 626 846>
VStem: 90 64<-410 1024> 562 64<149 369 433 653> 1034 64<-410 1024>
CounterMasks: 1 38
LayerCount: 2
Back
Fore
SplineSet
90 1024 m 1
 154 1024 l 1
 154 -410 l 1
 1034 -410 l 1
 1034 1024 l 1
 1098 1024 l 1
 1098 525 1098 25 1098 -474 c 1
 90 -474 l 1
 90 25 90 525 90 1024 c 1
562 653 m 1
 626 653 l 1
 626 433 l 1
 846 433 l 1
 846 369 l 1
 626 369 l 1
 626 149 l 1
 562 149 l 1
 562 369 l 1
 342 369 l 1
 342 433 l 1
 562 433 l 1
 562 653 l 1
EndSplineSet
EndChar

StartChar: uni2A01
Encoding: 44 10753 44
Width: 1250
Flags: W
HStem: -260 65<484.193 593 657 765.807> 243 64<155 593 657 1095> 745 65<484.193 593 657 765.807>
VStem: 90 65<134.193 243 307 415.807> 593 64<-195 243 307 745> 1095 65<134.193 243 307 415.807>
CounterMasks: 1 fc
LayerCount: 2
Back
Fore
SplineSet
657 307 m 1
 1095 307 l 1
 1087 420 1038 528 958 608 c 0
 878 688 770 737 657 745 c 1
 657 307 l 1
593 307 m 1
 593 745 l 1
 480 737 372 688 292 608 c 0
 212 528 163 420 155 307 c 1
 593 307 l 1
657 243 m 1
 657 -195 l 1
 770 -187 878 -138 958 -58 c 0
 1038 22 1087 130 1095 243 c 1
 657 243 l 1
593 243 m 1
 155 243 l 1
 163 130 212 22 292 -58 c 0
 372 -138 480 -187 593 -195 c 1
 593 243 l 1
1160 275 m 0
 1160 133 1104 -3 1003 -103 c 0
 903 -204 767 -260 625 -260 c 0
 483 -260 347 -204 247 -103 c 0
 146 -3 90 133 90 275 c 0
 90 417 146 553 247 653 c 0
 347 754 483 810 625 810 c 0
 767 810 903 754 1003 653 c 0
 1104 553 1160 417 1160 275 c 0
EndSplineSet
EndChar

StartChar: uni2A01.disp
Encoding: 45 -1 45
Width: 1678
Flags: W
HStem: -474 65<666.217 807 871 1011.78> 243 64<155 807 871 1523> 959 65<666.217 807 871 1011.78>
VStem: 90 65<102.217 243 307 447.783> 807 64<-409 243 307 959> 1523 65<102.217 243 307 447.783>
CounterMasks: 1 fc
LayerCount: 2
Back
Fore
SplineSet
871 307 m 1
 1523 307 l 1
 1515 477 1444 639 1323 759 c 0
 1203 880 1041 951 871 959 c 1
 871 307 l 1
807 307 m 1
 807 959 l 1
 637 951 475 880 355 759 c 0
 234 639 163 477 155 307 c 1
 807 307 l 1
871 243 m 1
 871 -409 l 1
 1041 -401 1203 -330 1323 -209 c 0
 1444 -89 1515 73 1523 243 c 1
 871 243 l 1
807 243 m 1
 155 243 l 1
 163 73 234 -89 355 -209 c 0
 475 -330 637 -401 807 -409 c 1
 807 243 l 1
1588 275 m 0
 1588 76 1509 -114 1369 -255 c 0
 1228 -395 1038 -474 839 -474 c 0
 640 -474 450 -395 309 -255 c 0
 169 -114 90 76 90 275 c 0
 90 474 169 664 309 805 c 0
 450 945 640 1024 839 1024 c 0
 1038 1024 1228 945 1369 805 c 0
 1509 664 1588 474 1588 275 c 0
EndSplineSet
EndChar

StartChar: uni2A02
Encoding: 46 10754 46
Width: 1250
Flags: W
HStem: -260 64<486.132 763.868> 746 64<486.132 763.868>
VStem: 90 64<136.132 413.868> 1096 64<136.132 413.868>
LayerCount: 2
Back
Fore
SplineSet
625 320 m 1
 935 630 l 1
 850 704 739 746 625 746 c 0
 511 746 400 704 315 630 c 1
 625 320 l 1
580 275 m 1
 270 585 l 1
 196 500 154 389 154 275 c 0
 154 161 196 50 270 -35 c 1
 580 275 l 1
670 275 m 1
 980 -35 l 1
 1054 50 1096 161 1096 275 c 0
 1096 389 1054 500 980 585 c 1
 670 275 l 1
625 230 m 1
 315 -80 l 1
 400 -154 511 -196 625 -196 c 0
 739 -196 850 -154 935 -80 c 1
 625 230 l 1
1160 275 m 0
 1160 133 1104 -3 1003 -103 c 0
 903 -204 767 -260 625 -260 c 0
 483 -260 347 -204 247 -103 c 0
 146 -3 90 133 90 275 c 0
 90 417 146 553 247 653 c 0
 347 754 483 810 625 810 c 0
 767 810 903 754 1003 653 c 0
 1104 553 1160 417 1160 275 c 0
EndSplineSet
EndChar

StartChar: uni2A02.disp
Encoding: 47 -1 47
Width: 1678
Flags: W
HStem: -474 64<670.142 1007.86> 960 64<670.142 1007.86>
VStem: 90 64<106.142 443.858> 1524 64<106.142 443.858>
LayerCount: 2
Back
Fore
SplineSet
839 321 m 1
 1300 782 l 1
 1175 897 1010 960 839 960 c 0
 668 960 503 897 378 782 c 1
 839 321 l 1
793 275 m 1
 332 736 l 1
 217 611 154 446 154 275 c 0
 154 104 217 -61 332 -186 c 1
 793 275 l 1
885 275 m 1
 1346 -186 l 1
 1461 -61 1524 104 1524 275 c 0
 1524 446 1461 611 1346 736 c 1
 885 275 l 1
839 229 m 1
 378 -232 l 1
 503 -347 668 -410 839 -410 c 0
 1010 -410 1175 -347 1300 -232 c 1
 839 229 l 1
1588 275 m 0
 1588 76 1509 -114 1369 -255 c 0
 1228 -395 1038 -474 839 -474 c 0
 640 -474 450 -395 309 -255 c 0
 169 -114 90 76 90 275 c 0
 90 474 169 664 309 805 c 0
 450 945 640 1024 839 1024 c 0
 1038 1024 1228 945 1369 805 c 0
 1509 664 1588 474 1588 275 c 0
EndSplineSet
EndChar

StartChar: uni2A00
Encoding: 48 10752 48
Width: 1250
Flags: W
HStem: -260 64<488.062 761.938> 200 150<588.367 661.633> 746 64<488.062 761.938>
VStem: 90 64<138.062 411.938> 550 150<238.367 311.633> 1096 64<138.062 411.938>
CounterMasks: 1 fc
LayerCount: 2
Back
Fore
SplineSet
1160 275 m 0
 1160 133 1104 -3 1003 -103 c 0
 903 -204 767 -260 625 -260 c 0
 483 -260 347 -204 247 -103 c 0
 146 -3 90 133 90 275 c 0
 90 417 146 553 247 653 c 0
 347 754 483 810 625 810 c 0
 767 810 903 754 1003 653 c 0
 1104 553 1160 417 1160 275 c 0
1096 275 m 0
 1096 400 1046 520 958 608 c 0
 870 696 750 746 625 746 c 0
 500 746 380 696 292 608 c 0
 204 520 154 400 154 275 c 0
 154 150 204 30 292 -58 c 0
 380 -146 500 -196 625 -196 c 0
 750 -196 870 -146 958 -58 c 0
 1046 30 1096 150 1096 275 c 0
700 275 m 0
 700 260 683 243 670 230 c 0
 657 217 640 200 625 200 c 0
 610 200 593 217 580 230 c 0
 567 243 550 260 550 275 c 0
 550 290 567 307 580 320 c 0
 593 333 610 350 625 350 c 0
 640 350 657 333 670 320 c 0
 683 307 700 290 700 275 c 0
EndSplineSet
EndChar

StartChar: uni2A00.disp
Encoding: 49 -1 49
Width: 1678
Flags: W
HStem: -474 64<672.999 1005> 200 150<802.367 875.633> 960 64<672.999 1005>
VStem: 90 64<108.999 441.001> 764 150<238.367 311.633> 1524 64<108.999 441.001>
CounterMasks: 1 fc
LayerCount: 2
Back
Fore
SplineSet
1588 275 m 0
 1588 76 1509 -114 1369 -255 c 0
 1228 -395 1038 -474 839 -474 c 0
 640 -474 450 -395 309 -255 c 0
 169 -114 90 76 90 275 c 0
 90 474 169 664 309 805 c 0
 450 945 640 1024 839 1024 c 0
 1038 1024 1228 945 1369 805 c 0
 1509 664 1588 474 1588 275 c 0
1524 275 m 0
 1524 457 1452 631 1323 759 c 0
 1195 888 1021 960 839 960 c 0
 657 960 483 888 355 759 c 0
 226 631 154 457 154 275 c 0
 154 93 226 -81 355 -209 c 0
 483 -338 657 -410 839 -410 c 0
 1021 -410 1195 -338 1323 -209 c 0
 1452 -81 1524 93 1524 275 c 0
914 275 m 0
 914 260 897 243 884 230 c 0
 871 217 854 200 839 200 c 0
 824 200 807 217 794 230 c 0
 781 243 764 260 764 275 c 0
 764 290 781 307 794 320 c 0
 807 333 824 350 839 350 c 0
 854 350 871 333 884 320 c 0
 897 307 914 290 914 275 c 0
EndSplineSet
EndChar

StartChar: sym09B
Encoding: 50 -1 50
Width: 1250
Flags: W
HStem: -260 66<481.908 583 667 768.092> 744 66<481.908 583 667 768.092>
VStem: 90 64<135.839 414.161> 583 84<-194 125.667 424.333 744> 592 66<-102.667 217 333 652.667> 1096 64<135.839 414.161>
LayerCount: 2
Back
Fore
SplineSet
658 333 m 1xec
 1010 546 l 1
 994 568 977 589 958 608 c 0
 880 686 777 734 667 744 c 1xf4
 658 333 l 1xec
592 333 m 1xec
 583 744 l 1xf4
 473 734 370 686 292 608 c 0
 273 589 256 568 240 546 c 1
 592 333 l 1xec
558 275 m 1
 198 473 l 1
 169 411 154 344 154 275 c 0
 154 206 169 139 198 77 c 1
 558 275 l 1
592 217 m 1xec
 240 4 l 1
 256 -18 273 -39 292 -58 c 0
 370 -136 473 -184 583 -194 c 1xf4
 592 217 l 1xec
658 217 m 1xec
 667 -194 l 1xf4
 777 -184 880 -136 958 -58 c 0
 977 -39 994 -18 1010 4 c 1
 658 217 l 1xec
692 275 m 1
 1052 77 l 1
 1081 139 1096 206 1096 275 c 0
 1096 344 1081 411 1052 473 c 1
 692 275 l 1
1160 275 m 0
 1160 133 1104 -3 1003 -103 c 0
 903 -204 767 -260 625 -260 c 0
 483 -260 347 -204 247 -103 c 0
 146 -3 90 133 90 275 c 0
 90 417 146 553 247 653 c 0
 347 754 483 810 625 810 c 0
 767 810 903 754 1003 653 c 0
 1104 553 1160 417 1160 275 c 0
EndSplineSet
EndChar

StartChar: sym09B.disp
Encoding: 51 -1 51
Width: 1678
Flags: W
HStem: -474 65<667.012 797 881 1010.99> 959 65<667.012 797 881 1010.99>
VStem: 90 64<106.419 443.581> 797 84<-409 78.6667 471.333 959> 806 66<-269.667 218 332 819.667> 1524 64<106.419 443.581>
LayerCount: 2
Back
Fore
SplineSet
872 332 m 1xec
 1410 653 l 1
 1385 691 1356 726 1323 759 c 0
 1205 878 1047 949 881 959 c 1xf4
 872 332 l 1xec
806 332 m 1xec
 797 959 l 1xf4
 631 949 473 878 355 759 c 0
 322 726 293 691 268 653 c 1
 806 332 l 1xec
773 275 m 1
 226 581 l 1
 179 487 154 382 154 275 c 0
 154 168 179 63 226 -31 c 1
 773 275 l 1
806 218 m 1xec
 268 -103 l 1
 293 -141 322 -176 355 -209 c 0
 473 -328 631 -399 797 -409 c 1xf4
 806 218 l 1xec
872 218 m 1xec
 881 -409 l 1xf4
 1047 -399 1205 -328 1323 -209 c 0
 1356 -176 1385 -141 1410 -103 c 1
 872 218 l 1xec
905 275 m 1
 1452 -31 l 1
 1499 63 1524 168 1524 275 c 0
 1524 382 1499 487 1452 581 c 1
 905 275 l 1
1588 275 m 0
 1588 76 1509 -114 1369 -255 c 0
 1228 -395 1038 -474 839 -474 c 0
 640 -474 450 -395 309 -255 c 0
 169 -114 90 76 90 275 c 0
 90 474 169 664 309 805 c 0
 450 945 640 1024 839 1024 c 0
 1038 1024 1228 945 1369 805 c 0
 1509 664 1588 474 1588 275 c 0
EndSplineSet
EndChar

StartChar: product
Encoding: 52 8719 52
Width: 1080
Flags: W
HStem: -260 39<97 150.125 300.375 354 726 779.625 929.875 983> 746 64<269 811> 770 40<92 153.974 926.026 988>
VStem: 181 88<-197.187 745.586> 811 88<-197.187 745.586>
LayerCount: 2
Back
Fore
SplineSet
97 -260 m 1xd8
 90 -221 l 1
 129 -210 181 -196 181 -174 c 2
 181 724 l 2
 181 746 130 760 92 770 c 1
 90 810 l 1
 990 810 l 1
 988 770 l 1xb8
 950 760 899 746 899 724 c 2
 899 -174 l 2
 899 -196 951 -210 990 -221 c 1
 983 -260 l 1
 726 -260 l 1
 719 -221 l 1
 758 -210 811 -196 811 -174 c 2
 811 746 l 1
 269 746 l 1
 269 -174 l 2
 269 -196 322 -210 361 -221 c 1
 354 -260 l 1
 97 -260 l 1xd8
EndSplineSet
EndChar

StartChar: product.disp
Encoding: 53 -1 53
Width: 1440
Flags: W
HStem: -474 43<98 157.586 317.051 377 1063 1122.95 1282.94 1342> 954 70<285 1155> 981 43<92 156.75 1283.75 1348>
VStem: 190 95<-404.027 953.52> 1155 96<-404.868 953.52>
LayerCount: 2
Back
Fore
SplineSet
98 -474 m 1xd8
 90 -431 l 1
 132 -420 190 -404 190 -381 c 2
 190 930 l 2
 190 954 134 969 92 981 c 1
 90 1024 l 1
 1350 1024 l 1
 1348 981 l 1xb8
 1306 969 1251 954 1251 930 c 2
 1251 -381 l 2
 1251 -404 1308 -420 1350 -431 c 1
 1342 -474 l 1
 1063 -474 l 1
 1055 -431 l 1
 1098 -420 1155 -404 1155 -381 c 2
 1155 954 l 1
 285 954 l 1
 285 -381 l 2
 285 -404 342 -420 385 -431 c 1
 377 -474 l 1
 98 -474 l 1xd8
EndSplineSet
EndChar

StartChar: product.sf
Encoding: 54 -1 54
Width: 1080
Flags: W
HStem: 725 85<90 181 266 814 899 990>
VStem: 181 85<-260 725> 814 85<-260 725>
LayerCount: 2
Back
Fore
SplineSet
181 -260 m 1
 181 725 l 1
 90 725 l 1
 90 810 l 1
 990 810 l 1
 990 725 l 1
 899 725 l 1
 899 -260 l 1
 814 -260 l 1
 814 725 l 1
 266 725 l 1
 266 -260 l 1
 181 -260 l 1
EndSplineSet
EndChar

StartChar: product.sf.disp
Encoding: 55 -1 55
Width: 1440
Flags: W
HStem: 931 93<90 189 282 1158 1251 1350>
VStem: 189 93<-474 931> 1158 93<-474 931>
LayerCount: 2
Back
Fore
SplineSet
189 -474 m 1
 189 931 l 1
 90 931 l 1
 90 1024 l 1
 1350 1024 l 1
 1350 931 l 1
 1251 931 l 1
 1251 -474 l 1
 1158 -474 l 1
 1158 931 l 1
 282 931 l 1
 282 -474 l 1
 189 -474 l 1
EndSplineSet
EndChar

StartChar: uni2210
Encoding: 56 8720 56
Width: 1080
Flags: W
HStem: -260 64<269 811> -260 40<92 153.974 926.026 988> 771 39<97 150.125 300.375 354 726 779.625 929.875 983>
VStem: 181 88<-195.586 747.187> 811 88<-195.586 747.187>
LayerCount: 2
Back
Fore
SplineSet
97 810 m 1x78
 354 810 l 1
 361 771 l 1
 322 760 269 746 269 724 c 2
 269 -196 l 1
 811 -196 l 1xb8
 811 724 l 2
 811 746 758 760 719 771 c 1
 726 810 l 1
 983 810 l 1
 990 771 l 1
 951 760 899 746 899 724 c 2
 899 -174 l 2
 899 -196 950 -210 988 -220 c 1
 990 -260 l 1
 90 -260 l 1
 92 -220 l 1
 130 -210 181 -196 181 -174 c 2
 181 724 l 2
 181 746 129 760 90 771 c 1
 97 810 l 1x78
EndSplineSet
EndChar

StartChar: uni2210.disp
Encoding: 57 -1 57
Width: 1440
Flags: W
HStem: -474 70<285 1155> -474 43<92 156.75 1283.75 1348> 981 43<98 157.586 317.051 377 1063 1122.95 1282.94 1342>
VStem: 190 95<-403.52 954.027> 1155 96<-403.52 954.868>
LayerCount: 2
Back
Fore
SplineSet
98 1024 m 1x78
 377 1024 l 1
 385 981 l 1
 342 970 285 954 285 931 c 2
 285 -404 l 1
 1155 -404 l 1xb8
 1155 931 l 2
 1155 954 1098 970 1055 981 c 1
 1063 1024 l 1
 1342 1024 l 1
 1350 981 l 1
 1308 970 1251 954 1251 931 c 2
 1251 -380 l 2
 1251 -404 1306 -419 1348 -431 c 1
 1350 -474 l 1
 90 -474 l 1
 92 -431 l 1
 134 -419 190 -404 190 -380 c 2
 190 931 l 2
 190 954 132 970 90 981 c 1
 98 1024 l 1x78
EndSplineSet
EndChar

StartChar: uni2210.sf
Encoding: 58 -1 58
Width: 1080
Flags: W
HStem: -260 85<90 181 266 814 899 990>
VStem: 181 85<-175 810> 814 85<-175 810>
LayerCount: 2
Back
Fore
SplineSet
181 810 m 1
 266 810 l 1
 266 -175 l 1
 814 -175 l 1
 814 810 l 1
 899 810 l 1
 899 -175 l 1
 990 -175 l 1
 990 -260 l 1
 90 -260 l 1
 90 -175 l 1
 181 -175 l 1
 181 810 l 1
EndSplineSet
EndChar

StartChar: uni2210.sf.disp
Encoding: 59 -1 59
Width: 1440
Flags: W
HStem: -474 93<90 189 282 1158 1251 1350>
VStem: 189 93<-381 1024> 1158 93<-381 1024>
LayerCount: 2
Back
Fore
SplineSet
189 1024 m 1
 282 1024 l 1
 282 -381 l 1
 1158 -381 l 1
 1158 1024 l 1
 1251 1024 l 1
 1251 -381 l 1
 1350 -381 l 1
 1350 -474 l 1
 90 -474 l 1
 90 -381 l 1
 189 -381 l 1
 189 1024 l 1
EndSplineSet
EndChar

StartChar: summation
Encoding: 60 8721 60
Width: 900
Flags: W
HStem: -260 82<447.778 762.756> -260 64<185 352.222> 748 62<201 732.619>
VStem: 778 32<678 702.588>
LayerCount: 2
Back
Fore
SplineSet
105 -260 m 1x70
 90 -196 l 1
 396 266 l 1
 90 739 l 1
 106 810 l 1
 810 810 l 1
 810 678 l 1
 778 678 l 1
 755 732 691 748 630 748 c 2
 201 751 l 1
 504 284 l 1
 185 -196 l 1x70
 615 -178 l 2xb0
 688 -175 784 -171 794 -124 c 1
 826 -132 l 1
 790 -260 l 1
 105 -260 l 1x70
EndSplineSet
EndChar

StartChar: summation.disp
Encoding: 61 -1 61
Width: 1188
Flags: W
HStem: -474 89<594.316 1030.54> -474 70<192 426.684> 957 67<210 1006.5>
VStem: 1063 35<880 907.768>
LayerCount: 2
Back
Fore
SplineSet
106 -474 m 1x70
 90 -404 l 1
 536 265 l 1
 90 946 l 1
 108 1024 l 1
 1098 1024 l 1
 1098 880 l 1
 1063 880 l 1
 1031 956 933 956 846 957 c 2
 210 960 l 1
 652 285 l 1
 192 -404 l 1x70
 829 -385 l 2xb0
 931 -382 1069 -377 1081 -326 c 1
 1115 -334 l 1
 1076 -474 l 1
 106 -474 l 1x70
EndSplineSet
EndChar

StartChar: summation.sf
Encoding: 62 -1 62
Width: 900
Flags: W
HStem: -260 88<199 810> 722 88<199 810>
LayerCount: 2
Back
Fore
SplineSet
90 -260 m 1
 90 -172 l 1
 395 275 l 1
 90 722 l 1
 90 810 l 1
 810 810 l 1
 810 722 l 1
 199 722 l 1
 505 275 l 1
 199 -172 l 1
 810 -172 l 1
 810 -260 l 1
 90 -260 l 1
EndSplineSet
EndChar

StartChar: summation.sf.disp
Encoding: 63 -1 63
Width: 1188
Flags: W
HStem: -474 96<208 1098> 928 96<208 1098>
LayerCount: 2
Back
Fore
SplineSet
90 -474 m 1
 90 -378 l 1
 535 275 l 1
 90 928 l 1
 90 1024 l 1
 1098 1024 l 1
 1098 928 l 1
 208 928 l 1
 653 275 l 1
 208 -378 l 1
 1098 -378 l 1
 1098 -474 l 1
 90 -474 l 1
EndSplineSet
EndChar

StartChar: uni2A0A
Encoding: 64 10762 64
Width: 900
Flags: W
HStem: -260 82<447.778 762.756> -260 64<185 352.222> 63 64<404.546 526.925> 423 64<416.486 526.925> 748 62<201 732.619>
VStem: 238 64<197.85 351.66> 598 64<198.075 351.925> 778 32<678 702.588>
LayerCount: 2
Back
Fore
SplineSet
332 365 m 1x3f
 313 339 302 307 302 275 c 0
 302 240 315 205 338 178 c 1
 396 266 l 1
 332 365 l 1x3f
302 123 m 1
 261 163 238 218 238 275 c 0
 238 329 259 381 296 421 c 1
 90 739 l 1
 106 810 l 1
 810 810 l 1
 810 678 l 1
 778 678 l 1
 755 732 691 748 630 748 c 2
 201 751 l 1
 380 475 l 1
 402 483 426 487 450 487 c 0
 506 487 560 465 600 425 c 0
 640 385 662 331 662 275 c 0
 662 219 640 165 600 125 c 0
 560 85 506 63 450 63 c 0
 422 63 394 68 368 79 c 1
 185 -196 l 1x7f
 615 -178 l 2xbf
 688 -175 784 -171 794 -124 c 1
 826 -132 l 1
 790 -260 l 1
 105 -260 l 1
 90 -196 l 1x7f
 302 123 l 1
598 275 m 0
 598 314 582 352 555 380 c 0
 527 407 489 423 450 423 c 0
 439 423 427 422 416 419 c 1
 504 284 l 1
 404 134 l 1
 419 129 434 127 450 127 c 0
 489 127 527 143 555 170 c 0
 582 198 598 236 598 275 c 0
EndSplineSet
EndChar

StartChar: uni2A0A.disp
Encoding: 65 -1 65
Width: 1188
Flags: W
HStem: -474 89<594.316 1030.54> -474 70<192 426.684> -58 70<488.085 698.128> 538 70<499.432 698.128> 957 67<210 1006.5>
VStem: 261 70<173.163 378.156> 857 70<170.872 379.128> 1063 35<880 907.768>
LayerCount: 2
Back
Fore
SplineSet
408 461 m 1x3f
 358 412 331 345 331 275 c 0
 331 201 362 133 414 83 c 1
 536 265 l 1
 408 461 l 1x3f
261 275 m 0
 261 369 302 458 369 520 c 1
 90 946 l 1
 108 1024 l 1
 1098 1024 l 1
 1098 880 l 1
 1063 880 l 1
 1031 956 933 956 846 957 c 2
 210 960 l 1
 459 579 l 1
 501 598 547 608 594 608 c 0
 682 608 767 573 829 510 c 0
 892 448 927 363 927 275 c 0
 927 187 892 102 829 40 c 0
 767 -23 682 -58 594 -58 c 0
 542 -58 492 -46 446 -23 c 1
 192 -404 l 1x7f
 829 -385 l 2xbf
 931 -382 1069 -377 1081 -326 c 1
 1115 -334 l 1
 1076 -474 l 1
 106 -474 l 1
 90 -404 l 1x7f
 376 24 l 1
 306 85 261 178 261 275 c 0
857 275 m 0
 857 345 830 412 780 461 c 0
 731 511 664 538 594 538 c 0
 561 538 528 532 498 520 c 1
 652 285 l 1
 485 35 l 1
 519 20 556 12 594 12 c 0
 664 12 731 39 780 89 c 0
 830 138 857 205 857 275 c 0
EndSplineSet
EndChar

StartChar: uni2A0A.sf
Encoding: 66 -1 66
Width: 900
Flags: W
HStem: -260 88<199 810> 63 64<408.953 526.925> 423 64<408.953 526.925> 722 88<199 810>
VStem: 238 64<198.494 351.506> 598 64<198.075 351.925>
LayerCount: 2
Back
Fore
SplineSet
333 366 m 1
 313 340 302 308 302 275 c 0
 302 242 313 210 333 184 c 1
 395 275 l 1
 333 366 l 1
662 275 m 0
 662 219 640 165 600 125 c 0
 560 85 506 63 450 63 c 0
 423 63 395 68 370 78 c 1
 199 -172 l 1
 810 -172 l 1
 810 -260 l 1
 90 -260 l 1
 90 -172 l 1
 296 129 l 1
 259 169 238 221 238 275 c 0
 238 329 259 381 296 421 c 1
 90 722 l 1
 90 810 l 1
 810 810 l 1
 810 722 l 1
 199 722 l 1
 370 472 l 1
 395 482 423 487 450 487 c 0
 506 487 560 465 600 425 c 0
 640 385 662 331 662 275 c 0
598 275 m 0
 598 314 582 352 555 380 c 0
 527 407 489 423 450 423 c 0
 436 423 422 421 408 417 c 1
 505 275 l 1
 408 133 l 1
 422 129 436 127 450 127 c 0
 489 127 527 143 555 170 c 0
 582 198 598 236 598 275 c 0
EndSplineSet
EndChar

StartChar: uni2A0A.sf.disp
Encoding: 67 -1 67
Width: 1188
Flags: W
HStem: -474 96<208 1098> -58 70<490.316 698.128> 538 70<490.316 698.128> 928 96<208 1098>
VStem: 261 70<172.014 377.986> 857 70<170.872 379.128>
LayerCount: 2
Back
Fore
SplineSet
408 461 m 1
 359 411 331 346 331 275 c 0
 331 204 359 139 408 89 c 1
 535 275 l 1
 408 461 l 1
261 275 m 0
 261 369 302 457 369 519 c 1
 90 928 l 1
 90 1024 l 1
 1098 1024 l 1
 1098 928 l 1
 208 928 l 1
 449 575 l 1
 494 597 543 608 594 608 c 0
 682 608 767 573 829 510 c 0
 892 448 927 363 927 275 c 0
 927 187 892 102 829 40 c 0
 767 -23 682 -58 594 -58 c 0
 543 -58 494 -47 449 -25 c 1
 208 -378 l 1
 1098 -378 l 1
 1098 -474 l 1
 90 -474 l 1
 90 -378 l 1
 369 31 l 1
 303 93 261 181 261 275 c 0
857 275 m 0
 857 345 830 412 780 461 c 0
 731 511 664 538 594 538 c 0
 557 538 522 530 489 516 c 1
 653 275 l 1
 489 34 l 1
 522 20 557 12 594 12 c 0
 664 12 731 39 780 89 c 0
 830 138 857 205 857 275 c 0
EndSplineSet
EndChar

StartChar: integral
Encoding: 68 8747 68
Width: 468
Flags: W
HStem: -328 71<110 203.781> 809 69<389.294 490.281>
VStem: 257 86<-193.864 751.174>
LayerCount: 2
Back
Fore
SplineSet
257 655 m 2
 257 777 347 878 469 878 c 0
 482 878 496 876 508 873 c 1
 490 803 l 1
 474 807 458 809 442 809 c 0
 375 809 343 731 343 655 c 2
 343 -100 l 2
 343 -226 241 -328 115 -328 c 0
 113 -328 112 -328 110 -328 c 1
 100 -257 l 1
 148 -257 l 2
 219 -257 257 -179 257 -100 c 2
 257 655 l 2
EndSplineSet
EndChar

StartChar: integral.disp
Encoding: 69 -1 69
Width: 676
Flags: W
HStem: -811 83<119 249.641> 1280 81<662.091 817.293>
VStem: 419 98<-544.028 1099.74>
LayerCount: 2
Back
Fore
SplineSet
839 1355 m 1
 817 1274 l 1
 791 1278 764 1280 737 1280 c 0
 596 1280 517 1129 517 973 c 2
 517 -418 l 2
 517 -635 340 -811 124 -811 c 0
 122 -811 121 -811 119 -811 c 1
 107 -728 l 1
 189 -728 l 2
 333 -728 419 -576 419 -418 c 2
 419 973 l 2
 419 1174 562 1349 758 1361 c 0
 762 1361 768 1361 772 1361 c 2
 839 1355 l 1
EndSplineSet
EndChar

StartChar: uni222C
Encoding: 70 8748 70
Width: 768
Flags: W
HStem: -328 71<110 203.781 410 503.781> 809 69<389.294 490.281 689.294 790.281>
VStem: 257 86<-193.864 751.174> 557 86<-193.864 751.174>
LayerCount: 2
Back
Fore
SplineSet
257 655 m 2
 257 777 347 878 469 878 c 0
 482 878 496 876 508 873 c 1
 490 803 l 1
 474 807 458 809 442 809 c 0
 375 809 343 731 343 655 c 2
 343 -100 l 2
 343 -226 241 -328 115 -328 c 0
 113 -328 112 -328 110 -328 c 1
 100 -257 l 1
 148 -257 l 2
 219 -257 257 -179 257 -100 c 2
 257 655 l 2
557 655 m 2
 557 777 647 878 769 878 c 0
 782 878 796 876 808 873 c 1
 790 803 l 1
 774 807 758 809 742 809 c 0
 675 809 643 731 643 655 c 2
 643 -100 l 2
 643 -226 541 -328 415 -328 c 0
 413 -328 412 -328 410 -328 c 1
 400 -257 l 1
 448 -257 l 2
 519 -257 557 -179 557 -100 c 2
 557 655 l 2
EndSplineSet
EndChar

StartChar: uni222C.disp
Encoding: 71 -1 71
Width: 1216
Flags: W
HStem: -811 83<119 249.641 659 789.641> 1280 81<662.091 817.293 1202.09 1357.29>
VStem: 419 98<-544.028 1099.74> 959 98<-544.028 1099.74>
LayerCount: 2
Back
Fore
SplineSet
839 1355 m 1
 817 1274 l 1
 791 1278 764 1280 737 1280 c 0
 596 1280 517 1129 517 973 c 2
 517 -418 l 2
 517 -635 340 -811 124 -811 c 0
 122 -811 121 -811 119 -811 c 1
 107 -728 l 1
 189 -728 l 2
 333 -728 419 -576 419 -418 c 2
 419 973 l 2
 419 1174 562 1349 758 1361 c 0
 762 1361 768 1361 772 1361 c 2
 839 1355 l 1
1379 1355 m 1
 1357 1274 l 1
 1331 1278 1304 1280 1277 1280 c 0
 1136 1280 1057 1129 1057 973 c 2
 1057 -418 l 2
 1057 -635 880 -811 664 -811 c 0
 662 -811 661 -811 659 -811 c 1
 647 -728 l 1
 729 -728 l 2
 873 -728 959 -576 959 -418 c 2
 959 973 l 2
 959 1174 1102 1349 1298 1361 c 0
 1302 1361 1308 1361 1312 1361 c 2
 1379 1355 l 1
EndSplineSet
EndChar

StartChar: uni222D
Encoding: 72 8749 72
Width: 1068
Flags: W
HStem: -328 71<110 203.781 410 503.781 710 803.781> 809 69<389.294 490.281 689.294 790.281 989.294 1090.28>
VStem: 257 86<-193.864 751.174> 557 86<-193.864 751.174> 857 86<-193.864 751.174>
CounterMasks: 1 38
LayerCount: 2
Back
Fore
SplineSet
257 655 m 2
 257 777 347 878 469 878 c 0
 482 878 496 876 508 873 c 1
 490 803 l 1
 474 807 458 809 442 809 c 0
 375 809 343 731 343 655 c 2
 343 -100 l 2
 343 -226 241 -328 115 -328 c 0
 113 -328 112 -328 110 -328 c 1
 100 -257 l 1
 148 -257 l 2
 219 -257 257 -179 257 -100 c 2
 257 655 l 2
557 655 m 2
 557 777 647 878 769 878 c 0
 782 878 796 876 808 873 c 1
 790 803 l 1
 774 807 758 809 742 809 c 0
 675 809 643 731 643 655 c 2
 643 -100 l 2
 643 -226 541 -328 415 -328 c 0
 413 -328 412 -328 410 -328 c 1
 400 -257 l 1
 448 -257 l 2
 519 -257 557 -179 557 -100 c 2
 557 655 l 2
857 655 m 2
 857 777 947 878 1069 878 c 0
 1082 878 1096 876 1108 873 c 1
 1090 803 l 1
 1074 807 1058 809 1042 809 c 0
 975 809 943 731 943 655 c 2
 943 -100 l 2
 943 -226 841 -328 715 -328 c 0
 713 -328 712 -328 710 -328 c 1
 700 -257 l 1
 748 -257 l 2
 819 -257 857 -179 857 -100 c 2
 857 655 l 2
EndSplineSet
EndChar

StartChar: uni222D.disp
Encoding: 73 -1 73
Width: 1756
Flags: W
HStem: -811 83<119 249.641 659 789.641 1199 1329.64> 1280 81<662.091 817.293 1202.09 1357.29 1742.09 1897.29>
VStem: 419 98<-544.028 1099.74> 959 98<-544.028 1099.74> 1499 98<-544.028 1099.74>
CounterMasks: 1 38
LayerCount: 2
Back
Fore
SplineSet
839 1355 m 1
 817 1274 l 1
 791 1278 764 1280 737 1280 c 0
 596 1280 517 1129 517 973 c 2
 517 -418 l 2
 517 -635 340 -811 124 -811 c 0
 122 -811 121 -811 119 -811 c 1
 107 -728 l 1
 189 -728 l 2
 333 -728 419 -576 419 -418 c 2
 419 973 l 2
 419 1174 562 1349 758 1361 c 0
 762 1361 768 1361 772 1361 c 2
 839 1355 l 1
1379 1355 m 1
 1357 1274 l 1
 1331 1278 1304 1280 1277 1280 c 0
 1136 1280 1057 1129 1057 973 c 2
 1057 -418 l 2
 1057 -635 880 -811 664 -811 c 0
 662 -811 661 -811 659 -811 c 1
 647 -728 l 1
 729 -728 l 2
 873 -728 959 -576 959 -418 c 2
 959 973 l 2
 959 1174 1102 1349 1298 1361 c 0
 1302 1361 1308 1361 1312 1361 c 2
 1379 1355 l 1
1919 1355 m 1
 1897 1274 l 1
 1871 1278 1844 1280 1817 1280 c 0
 1676 1280 1597 1129 1597 973 c 2
 1597 -418 l 2
 1597 -635 1420 -811 1204 -811 c 0
 1202 -811 1201 -811 1199 -811 c 1
 1187 -728 l 1
 1269 -728 l 2
 1413 -728 1499 -576 1499 -418 c 2
 1499 973 l 2
 1499 1174 1642 1349 1838 1361 c 0
 1842 1361 1848 1361 1852 1361 c 2
 1919 1355 l 1
EndSplineSet
EndChar

StartChar: uni2A0C
Encoding: 74 10764 74
Width: 1368
Flags: W
HStem: -328 71<110 203.781 410 503.781 710 803.781 1010 1103.78> 809 69<389.294 490.281 689.294 790.281 989.294 1090.28 1289.29 1390.28>
VStem: 257 86<-193.864 751.174> 557 86<-193.864 751.174> 857 86<-193.864 751.174> 1157 86<-193.864 751.174>
LayerCount: 2
Back
Fore
SplineSet
257 655 m 2
 257 777 347 878 469 878 c 0
 482 878 496 876 508 873 c 1
 490 803 l 1
 474 807 458 809 442 809 c 0
 375 809 343 731 343 655 c 2
 343 -100 l 2
 343 -226 241 -328 115 -328 c 0
 113 -328 112 -328 110 -328 c 1
 100 -257 l 1
 148 -257 l 2
 219 -257 257 -179 257 -100 c 2
 257 655 l 2
557 655 m 2
 557 777 647 878 769 878 c 0
 782 878 796 876 808 873 c 1
 790 803 l 1
 774 807 758 809 742 809 c 0
 675 809 643 731 643 655 c 2
 643 -100 l 2
 643 -226 541 -328 415 -328 c 0
 413 -328 412 -328 410 -328 c 1
 400 -257 l 1
 448 -257 l 2
 519 -257 557 -179 557 -100 c 2
 557 655 l 2
857 655 m 2
 857 777 947 878 1069 878 c 0
 1082 878 1096 876 1108 873 c 1
 1090 803 l 1
 1074 807 1058 809 1042 809 c 0
 975 809 943 731 943 655 c 2
 943 -100 l 2
 943 -226 841 -328 715 -328 c 0
 713 -328 712 -328 710 -328 c 1
 700 -257 l 1
 748 -257 l 2
 819 -257 857 -179 857 -100 c 2
 857 655 l 2
1157 655 m 2
 1157 777 1247 878 1369 878 c 0
 1382 878 1396 876 1408 873 c 1
 1390 803 l 1
 1374 807 1358 809 1342 809 c 0
 1275 809 1243 731 1243 655 c 2
 1243 -100 l 2
 1243 -226 1141 -328 1015 -328 c 0
 1013 -328 1012 -328 1010 -328 c 1
 1000 -257 l 1
 1048 -257 l 2
 1119 -257 1157 -179 1157 -100 c 2
 1157 655 l 2
EndSplineSet
EndChar

StartChar: uni2A0C.disp
Encoding: 75 -1 75
Width: 2296
Flags: W
HStem: -811 83<119 249.641 659 789.641 1199 1329.64 1739 1869.64> 1280 81<662.091 817.293 1202.09 1357.29 1742.09 1897.29 2282.09 2437.29>
VStem: 419 98<-544.028 1099.74> 959 98<-544.028 1099.74> 1499 98<-544.028 1099.74> 2039 98<-544.028 1099.74>
LayerCount: 2
Back
Fore
SplineSet
839 1355 m 1
 817 1274 l 1
 791 1278 764 1280 737 1280 c 0
 596 1280 517 1129 517 973 c 2
 517 -418 l 2
 517 -635 340 -811 124 -811 c 0
 122 -811 121 -811 119 -811 c 1
 107 -728 l 1
 189 -728 l 2
 333 -728 419 -576 419 -418 c 2
 419 973 l 2
 419 1174 562 1349 758 1361 c 0
 762 1361 768 1361 772 1361 c 2
 839 1355 l 1
1379 1355 m 1
 1357 1274 l 1
 1331 1278 1304 1280 1277 1280 c 0
 1136 1280 1057 1129 1057 973 c 2
 1057 -418 l 2
 1057 -635 880 -811 664 -811 c 0
 662 -811 661 -811 659 -811 c 1
 647 -728 l 1
 729 -728 l 2
 873 -728 959 -576 959 -418 c 2
 959 973 l 2
 959 1174 1102 1349 1298 1361 c 0
 1302 1361 1308 1361 1312 1361 c 2
 1379 1355 l 1
1919 1355 m 1
 1897 1274 l 1
 1871 1278 1844 1280 1817 1280 c 0
 1676 1280 1597 1129 1597 973 c 2
 1597 -418 l 2
 1597 -635 1420 -811 1204 -811 c 0
 1202 -811 1201 -811 1199 -811 c 1
 1187 -728 l 1
 1269 -728 l 2
 1413 -728 1499 -576 1499 -418 c 2
 1499 973 l 2
 1499 1174 1642 1349 1838 1361 c 0
 1842 1361 1848 1361 1852 1361 c 2
 1919 1355 l 1
2459 1355 m 1
 2437 1274 l 1
 2411 1278 2384 1280 2357 1280 c 0
 2216 1280 2137 1129 2137 973 c 2
 2137 -418 l 2
 2137 -635 1960 -811 1744 -811 c 0
 1742 -811 1741 -811 1739 -811 c 1
 1727 -728 l 1
 1809 -728 l 2
 1953 -728 2039 -576 2039 -418 c 2
 2039 973 l 2
 2039 1174 2182 1349 2378 1361 c 0
 2382 1361 2388 1361 2392 1361 c 2
 2459 1355 l 1
EndSplineSet
EndChar

StartChar: uni222B22EF222B
Encoding: 76 -1 76
Width: 1838
Flags: W
HStem: -328 71<110 203.781 1330 1423.78> 202 150<568.367 641.633 873.367 946.633 1178.37 1251.63> 809 69<389.294 490.281 1609.29 1710.28>
VStem: 257 86<-193.864 751.174> 530 150<240.754 313.633> 835 150<240.754 313.633> 1140 150<240.754 313.633> 1477 86<-193.864 751.174>
LayerCount: 2
Back
Fore
SplineSet
257 655 m 2
 257 777 347 878 469 878 c 0
 482 878 496 876 508 873 c 1
 490 803 l 1
 474 807 458 809 442 809 c 0
 375 809 343 731 343 655 c 2
 343 -100 l 2
 343 -226 241 -328 115 -328 c 0
 113 -328 112 -328 110 -328 c 1
 100 -257 l 1
 148 -257 l 2
 219 -257 257 -179 257 -100 c 2
 257 655 l 2
1477 655 m 2
 1477 777 1567 878 1689 878 c 0
 1702 878 1716 876 1728 873 c 1
 1710 803 l 1
 1694 807 1678 809 1662 809 c 0
 1595 809 1563 731 1563 655 c 2
 1563 -100 l 2
 1563 -226 1461 -328 1335 -328 c 0
 1333 -328 1332 -328 1330 -328 c 1
 1320 -257 l 1
 1368 -257 l 2
 1439 -257 1477 -179 1477 -100 c 2
 1477 655 l 2
680 277 m 0
 680 262 663 246 650 232 c 0
 637 219 620 202 605 202 c 0
 590 202 573 219 560 232 c 0
 547 246 530 262 530 277 c 0
 530 292 547 309 560 322 c 0
 573 336 590 352 605 352 c 0
 620 352 637 336 650 322 c 0
 663 309 680 292 680 277 c 0
985 277 m 0
 985 262 968 246 955 232 c 0
 942 219 925 202 910 202 c 0
 895 202 878 219 865 232 c 0
 852 246 835 262 835 277 c 0
 835 292 852 309 865 322 c 0
 878 336 895 352 910 352 c 0
 925 352 942 336 955 322 c 0
 968 309 985 292 985 277 c 0
1290 277 m 0
 1290 262 1273 246 1260 232 c 0
 1247 219 1230 202 1215 202 c 0
 1200 202 1183 219 1170 232 c 0
 1157 246 1140 262 1140 277 c 0
 1140 292 1157 309 1170 322 c 0
 1183 336 1200 352 1215 352 c 0
 1230 352 1247 336 1260 322 c 0
 1273 309 1290 292 1290 277 c 0
EndSplineSet
EndChar

StartChar: uni222B22EF222B.disp
Encoding: 77 -1 77
Width: 2286
Flags: W
HStem: -811 83<119 249.641 1459 1589.64> 203 150<766.367 839.633 1101.37 1174.63 1436.37 1509.63> 1280 81<662.091 817.293 2002.09 2157.29>
VStem: 419 98<-544.028 1099.74> 728 150<241.367 314.246> 1063 150<241.367 314.246> 1398 150<241.367 314.246> 1759 98<-544.028 1099.74>
LayerCount: 2
Back
Fore
SplineSet
839 1355 m 1
 817 1274 l 1
 791 1278 764 1280 737 1280 c 0
 596 1280 517 1129 517 973 c 2
 517 -418 l 2
 517 -635 340 -811 124 -811 c 0
 122 -811 121 -811 119 -811 c 1
 107 -728 l 1
 189 -728 l 2
 333 -728 419 -576 419 -418 c 2
 419 973 l 2
 419 1174 562 1349 758 1361 c 0
 762 1361 768 1361 772 1361 c 2
 839 1355 l 1
2179 1355 m 1
 2157 1274 l 1
 2131 1278 2104 1280 2077 1280 c 0
 1936 1280 1857 1129 1857 973 c 2
 1857 -418 l 2
 1857 -635 1680 -811 1464 -811 c 0
 1462 -811 1461 -811 1459 -811 c 1
 1447 -728 l 1
 1529 -728 l 2
 1673 -728 1759 -576 1759 -418 c 2
 1759 973 l 2
 1759 1174 1902 1349 2098 1361 c 0
 2102 1361 2108 1361 2112 1361 c 2
 2179 1355 l 1
878 278 m 0
 878 263 861 246 848 233 c 0
 835 219 818 203 803 203 c 0
 788 203 771 219 758 233 c 0
 745 246 728 263 728 278 c 0
 728 293 745 309 758 323 c 0
 771 336 788 353 803 353 c 0
 818 353 835 336 848 323 c 0
 861 309 878 293 878 278 c 0
1213 278 m 0
 1213 263 1196 246 1183 233 c 0
 1170 219 1153 203 1138 203 c 0
 1123 203 1106 219 1093 233 c 0
 1080 246 1063 263 1063 278 c 0
 1063 293 1080 309 1093 323 c 0
 1106 336 1123 353 1138 353 c 0
 1153 353 1170 336 1183 323 c 0
 1196 309 1213 293 1213 278 c 0
1548 278 m 0
 1548 263 1531 246 1518 233 c 0
 1505 219 1488 203 1473 203 c 0
 1458 203 1441 219 1428 233 c 0
 1415 246 1398 263 1398 278 c 0
 1398 293 1415 309 1428 323 c 0
 1441 336 1458 353 1473 353 c 0
 1488 353 1505 336 1518 323 c 0
 1531 309 1548 293 1548 278 c 0
EndSplineSet
EndChar

StartChar: uni2231
Encoding: 78 8753 78
Width: 720
Flags: W
HStem: -328 71<170 263.781> 301 65<255.906 317 403 465.051> 809 69<449.294 550.281>
VStem: 317 86<-193.864 301 362.27 751.174> 561 53<290 360.528>
LayerCount: 2
Back
Fore
SplineSet
317 655 m 2
 317 777 407 878 529 878 c 0
 542 878 556 876 568 873 c 1
 550 803 l 1
 534 807 518 809 502 809 c 0
 435 809 403 731 403 655 c 2
 403 366 l 1
 463 356 518 328 567 290 c 1
 561 360 l 1
 614 364 l 1
 629 193 l 1
 458 178 l 1
 453 231 l 1
 529 238 l 1
 491 268 449 292 403 301 c 1
 403 -100 l 2
 403 -226 301 -328 175 -328 c 0
 173 -328 172 -328 170 -328 c 1
 160 -257 l 1
 208 -257 l 2
 279 -257 317 -179 317 -100 c 2
 317 301 l 1
 250 288 193 245 143 195 c 1
 97 240 l 1
 159 302 233 353 317 366 c 1
 317 655 l 2
EndSplineSet
EndChar

StartChar: uni2231.disp
Encoding: 79 -1 79
Width: 892
Flags: W
HStem: -811 83<227 357.641> 346 74<440.639 527 625 712.662> 1280 81<770.091 925.293>
VStem: 527 98<-544.028 346 417.705 1099.74>
LayerCount: 2
Back
Fore
SplineSet
1041 142 m 1
 750 116 l 1
 745 178 l 1
 928 194 l 1
 840 271 738 332 625 346 c 1
 625 -418 l 2
 625 -635 448 -811 232 -811 c 0
 230 -811 229 -811 227 -811 c 1
 215 -728 l 1
 297 -728 l 2
 441 -728 527 -576 527 -418 c 2
 527 346 l 1
 390 329 270 243 170 143 c 1
 118 196 l 1
 231 309 370 403 527 420 c 1
 527 973 l 2
 527 1174 670 1349 866 1361 c 0
 870 1361 876 1361 880 1361 c 2
 947 1355 l 1
 925 1274 l 1
 899 1278 872 1280 845 1280 c 0
 704 1280 625 1129 625 973 c 2
 625 420 l 1
 753 406 870 342 970 256 c 1
 954 427 l 1
 1016 433 l 1
 1041 142 l 1
EndSplineSet
EndChar

StartChar: uni2A11
Encoding: 80 10769 80
Width: 720
Flags: W
HStem: -328 71<170 263.781> 188 65<257.026 317 403 463.062> 323 53<457.34 529> 809 69<449.294 550.281>
VStem: 317 86<-193.864 191.946 253 751.174> 561 53<194.34 265>
LayerCount: 2
Back
Fore
SplineSet
317 655 m 2
 317 777 407 878 529 878 c 0
 542 878 556 876 568 873 c 1
 550 803 l 1
 534 807 518 809 502 809 c 0
 435 809 403 731 403 655 c 2
 403 253 l 1
 449 262 491 287 529 317 c 1
 453 323 l 1
 458 376 l 1
 629 362 l 1
 614 190 l 1
 561 195 l 1
 567 265 l 1
 518 227 463 198 403 188 c 1
 403 -100 l 2
 403 -226 301 -328 175 -328 c 0
 173 -328 172 -328 170 -328 c 1
 160 -257 l 1
 208 -257 l 2
 279 -257 317 -179 317 -100 c 2
 317 188 l 1
 233 202 159 253 97 315 c 1
 143 360 l 1
 193 310 250 267 317 253 c 1
 317 655 l 2
EndSplineSet
EndChar

StartChar: uni2A11.disp
Encoding: 81 -1 81
Width: 892
Flags: W
HStem: -811 83<227 357.641> 136 74<440.639 527 625 713.11> 1280 81<770.091 925.293>
VStem: 527 98<-544.028 137.727 210 1099.74>
LayerCount: 2
Back
Fore
SplineSet
1041 414 m 1
 1016 123 l 1
 954 128 l 1
 970 299 l 1
 870 214 753 149 625 136 c 1
 625 -418 l 2
 625 -635 448 -811 232 -811 c 0
 230 -811 229 -811 227 -811 c 1
 215 -728 l 1
 297 -728 l 2
 441 -728 527 -576 527 -418 c 2
 527 136 l 1
 370 152 231 246 118 359 c 1
 170 412 l 1
 270 312 390 227 527 210 c 1
 527 973 l 2
 527 1174 670 1349 866 1361 c 0
 870 1361 876 1361 880 1361 c 2
 947 1355 l 1
 925 1274 l 1
 899 1278 872 1280 845 1280 c 0
 704 1280 625 1129 625 973 c 2
 625 210 l 1
 739 224 841 285 929 362 c 1
 745 378 l 1
 750 439 l 1
 1041 414 l 1
EndSplineSet
EndChar

StartChar: uni2A0D
Encoding: 82 10765 82
Width: 600
Flags: W
HStem: -328 71<110 203.781> 245 64<118 257 343 482> 809 69<389.294 490.281>
VStem: 257 86<-193.864 245 309 751.174>
LayerCount: 2
Back
Fore
SplineSet
257 655 m 2
 257 777 347 878 469 878 c 0
 482 878 496 876 508 873 c 1
 490 803 l 1
 474 807 458 809 442 809 c 0
 375 809 343 731 343 655 c 2
 343 309 l 1
 482 309 l 1
 482 245 l 1
 343 245 l 1
 343 -100 l 2
 343 -226 241 -328 115 -328 c 0
 113 -328 112 -328 110 -328 c 1
 100 -257 l 1
 148 -257 l 2
 219 -257 257 -179 257 -100 c 2
 257 245 l 1
 118 245 l 1
 118 309 l 1
 257 309 l 1
 257 655 l 2
EndSplineSet
EndChar

StartChar: uni2A0D.disp
Encoding: 83 -1 83
Width: 676
Flags: W
HStem: -811 83<119 249.641> 241 74<161 419 517 775> 1280 81<662.091 817.293>
VStem: 419 98<-544.028 241 315 1099.74>
LayerCount: 2
Back
Fore
SplineSet
161 241 m 1
 161 315 l 1
 419 315 l 1
 419 973 l 2
 419 1174 562 1349 758 1361 c 0
 762 1361 768 1361 772 1361 c 2
 839 1355 l 1
 817 1274 l 1
 791 1278 764 1280 737 1280 c 0
 596 1280 517 1129 517 973 c 2
 517 315 l 1
 775 315 l 1
 775 241 l 1
 517 241 l 1
 517 -418 l 2
 517 -635 340 -811 124 -811 c 0
 122 -811 121 -811 119 -811 c 1
 107 -728 l 1
 189 -728 l 2
 333 -728 419 -576 419 -418 c 2
 419 241 l 1
 161 241 l 1
EndSplineSet
EndChar

StartChar: uni2A0E
Encoding: 84 10766 84
Width: 600
Flags: W
HStem: -328 71<110 203.781> 149 64<118 257 343 482> 342 64<118 257 343 482> 809 69<389.294 490.281>
VStem: 257 86<-193.864 149 213 342 406 751.174>
LayerCount: 2
Back
Fore
SplineSet
257 655 m 2
 257 777 347 878 469 878 c 0
 482 878 496 876 508 873 c 1
 490 803 l 1
 474 807 458 809 442 809 c 0
 375 809 343 731 343 655 c 2
 343 406 l 1
 482 406 l 1
 482 342 l 1
 343 342 l 1
 343 213 l 1
 482 213 l 1
 482 149 l 1
 343 149 l 1
 343 -100 l 2
 343 -226 241 -328 115 -328 c 0
 113 -328 112 -328 110 -328 c 1
 100 -257 l 1
 148 -257 l 2
 219 -257 257 -179 257 -100 c 2
 257 149 l 1
 118 149 l 1
 118 213 l 1
 257 213 l 1
 257 342 l 1
 118 342 l 1
 118 406 l 1
 257 406 l 1
 257 655 l 2
EndSplineSet
EndChar

StartChar: uni2A0E.disp
Encoding: 85 -1 85
Width: 676
Flags: W
HStem: -811 83<119 249.641> 144 74<161 419 517 775> 337 74<161 419 517 775> 1280 81<662.091 817.293>
VStem: 419 98<-544.028 144 218 337 411 1099.74>
LayerCount: 2
Back
Fore
SplineSet
161 337 m 1
 161 411 l 1
 419 411 l 1
 419 973 l 2
 419 1174 562 1349 758 1361 c 0
 762 1361 768 1361 772 1361 c 2
 839 1355 l 1
 817 1274 l 1
 791 1278 764 1280 737 1280 c 0
 596 1280 517 1129 517 973 c 2
 517 411 l 1
 775 411 l 1
 775 337 l 1
 517 337 l 1
 517 218 l 1
 775 218 l 1
 775 144 l 1
 517 144 l 1
 517 -418 l 2
 517 -635 340 -811 124 -811 c 0
 122 -811 121 -811 119 -811 c 1
 107 -728 l 1
 189 -728 l 2
 333 -728 419 -576 419 -418 c 2
 419 144 l 1
 161 144 l 1
 161 218 l 1
 419 218 l 1
 419 337 l 1
 161 337 l 1
EndSplineSet
EndChar

StartChar: uni2A0F
Encoding: 86 10767 86
Width: 468
Flags: W
HStem: -328 71<110 203.781> 809 69<389.294 490.281>
VStem: 257 86<-193.864 208 346 751.174>
LayerCount: 2
Back
Fore
SplineSet
257 655 m 2
 257 777 347 878 469 878 c 0
 482 878 496 876 508 873 c 1
 490 803 l 1
 474 807 458 809 442 809 c 0
 375 809 343 731 343 655 c 2
 343 346 l 1
 480 442 l 1
 517 390 l 1
 343 268 l 1
 343 -100 l 2
 343 -226 241 -328 115 -328 c 0
 113 -328 112 -328 110 -328 c 1
 100 -257 l 1
 148 -257 l 2
 219 -257 257 -179 257 -100 c 2
 257 208 l 1
 120 112 l 1
 83 165 l 1
 257 286 l 1
 257 655 l 2
EndSplineSet
EndChar

StartChar: uni2A0F.disp
Encoding: 87 -1 87
Width: 676
Flags: W
HStem: -811 83<119 249.641> 526 20G<758.429 800.77> 1280 81<662.091 817.293>
VStem: 419 98<-544.028 198 357 1099.74>
LayerCount: 2
Back
Fore
SplineSet
149 9 m 1
 107 70 l 1
 419 288 l 1
 419 973 l 2
 419 1174 562 1349 758 1361 c 0
 762 1361 768 1361 772 1361 c 2
 839 1355 l 1
 817 1274 l 1
 791 1278 764 1280 737 1280 c 0
 596 1280 517 1129 517 973 c 2
 517 357 l 1
 787 546 l 1
 829 485 l 1
 517 267 l 1
 517 -418 l 2
 517 -635 340 -811 124 -811 c 0
 122 -811 121 -811 119 -811 c 1
 107 -728 l 1
 189 -728 l 2
 333 -728 419 -576 419 -418 c 2
 419 198 l 1
 149 9 l 1
EndSplineSet
EndChar

StartChar: uni222E
Encoding: 88 8750 88
Width: 660
Flags: W
HStem: -328 71<140 233.781> 39 65<239.121 287 373 420.879> 446 65<239.121 287 373 420.879> 809 69<419.294 520.281>
VStem: 90 64<193.211 356.789> 287 86<-193.864 43.5681 104 446 506.432 751.174> 506 64<193.211 356.789>
CounterMasks: 1 0e
LayerCount: 2
Back
Fore
SplineSet
287 446 m 1
 215 427 154 358 154 275 c 0
 154 192 215 123 287 104 c 1
 287 446 l 1
373 104 m 1
 445 123 506 192 506 275 c 0
 506 358 445 427 373 446 c 1
 373 104 l 1
287 655 m 2
 287 777 377 878 499 878 c 0
 512 878 526 876 538 873 c 1
 520 803 l 1
 504 807 488 809 472 809 c 0
 405 809 373 731 373 655 c 2
 373 511 l 1
 421 502 465 480 500 445 c 0
 545 400 570 339 570 275 c 0
 570 211 545 150 500 105 c 0
 465 70 421 48 373 39 c 1
 373 -100 l 2
 373 -226 271 -328 145 -328 c 0
 143 -328 142 -328 140 -328 c 1
 130 -257 l 1
 178 -257 l 2
 249 -257 287 -179 287 -100 c 2
 287 39 l 1
 239 48 195 70 160 105 c 0
 115 150 90 211 90 275 c 0
 90 339 115 400 160 445 c 0
 195 480 239 502 287 511 c 1
 287 655 l 2
EndSplineSet
EndChar

StartChar: uni222E.disp
Encoding: 89 -1 89
Width: 784
Flags: W
HStem: -811 83<173 303.641> -154 74<393.129 473 571 650.871> 630 74<393.129 473 571 650.871> 1280 81<716.091 871.293>
VStem: 90 74<154.323 395.677> 473 98<-544.028 -151.553 -80 630 701.553 1099.74> 880 74<154.323 395.677>
CounterMasks: 1 0e
LayerCount: 2
Back
Fore
SplineSet
473 -80 m 1
 473 630 l 1
 396 619 324 583 269 528 c 0
 202 461 164 370 164 275 c 0
 164 180 202 89 269 22 c 0
 324 -33 396 -69 473 -80 c 1
880 275 m 0
 880 370 842 461 775 528 c 0
 720 583 648 619 571 630 c 1
 571 -80 l 1
 648 -69 720 -33 775 22 c 0
 842 89 880 180 880 275 c 0
893 1355 m 1
 871 1274 l 1
 845 1278 818 1280 791 1280 c 0
 650 1280 571 1129 571 973 c 2
 571 704 l 1
 668 693 758 649 827 580 c 0
 908 499 954 390 954 275 c 0
 954 160 908 51 827 -30 c 0
 758 -99 668 -143 571 -154 c 1
 571 -418 l 2
 571 -635 394 -811 178 -811 c 0
 176 -811 175 -811 173 -811 c 1
 161 -728 l 1
 243 -728 l 2
 387 -728 473 -576 473 -418 c 2
 473 -154 l 1
 376 -143 286 -99 217 -30 c 0
 136 51 90 160 90 275 c 0
 90 390 136 499 217 580 c 0
 286 649 376 693 473 704 c 1
 473 973 l 2
 473 1174 616 1349 812 1361 c 0
 816 1361 822 1361 826 1361 c 2
 893 1355 l 1
EndSplineSet
EndChar

StartChar: uni222F
Encoding: 90 8751 90
Width: 960
Flags: W
HStem: -328 71<140 233.781 440 533.781> 35 64<373 587> 451 64<373 587> 809 69<419.294 520.281 719.294 820.281>
VStem: 90 64<199.497 350.503> 287 86<-193.864 39 121 429 511 751.174> 587 86<-193.864 39 121 429 511 751.174> 806 64<199.497 350.503>
LayerCount: 2
Back
Fore
SplineSet
287 121 m 1
 287 429 l 1
 270 423 252 416 236 407 c 0
 186 381 154 331 154 275 c 0
 154 219 186 169 236 143 c 0
 252 134 270 127 287 121 c 1
587 104 m 1
 587 446 l 1
 552 450 516 451 480 451 c 0
 444 451 408 450 373 446 c 1
 373 104 l 1
 408 100 444 99 480 99 c 0
 516 99 552 100 587 104 c 1
806 275 m 0
 806 331 774 381 725 407 c 0
 708 416 691 423 673 429 c 1
 673 121 l 1
 691 127 708 134 725 143 c 0
 774 169 806 219 806 275 c 0
587 655 m 2
 587 777 677 878 799 878 c 0
 812 878 826 876 838 873 c 1
 820 803 l 1
 804 807 788 809 772 809 c 0
 705 809 673 731 673 655 c 2
 673 496 l 1
 708 487 742 474 773 455 c 0
 835 417 870 348 870 275 c 0
 870 202 835 133 773 95 c 0
 742 76 708 63 673 54 c 1
 673 -100 l 2
 673 -226 571 -328 445 -328 c 0
 443 -328 442 -328 440 -328 c 1
 430 -257 l 1
 478 -257 l 2
 549 -257 587 -179 587 -100 c 2
 587 39 l 1
 552 36 516 35 480 35 c 0
 444 35 408 36 373 39 c 1
 373 -100 l 2
 373 -226 271 -328 145 -328 c 0
 143 -328 142 -328 140 -328 c 1
 130 -257 l 1
 178 -257 l 2
 249 -257 287 -179 287 -100 c 2
 287 54 l 1
 252 63 219 76 188 95 c 0
 126 133 90 202 90 275 c 0
 90 348 126 417 188 455 c 0
 219 474 252 487 287 496 c 1
 287 655 l 2
 287 777 377 878 499 878 c 0
 512 878 526 876 538 873 c 1
 520 803 l 1
 504 807 488 809 472 809 c 0
 405 809 373 731 373 655 c 2
 373 511 l 1
 408 514 444 515 480 515 c 0
 516 515 552 514 587 511 c 1
 587 655 l 2
EndSplineSet
EndChar

StartChar: uni222F.disp
Encoding: 91 -1 91
Width: 1324
Flags: W
HStem: -811 83<173 303.641 713 843.641> -157 74<574.423 1009.58> 633 74<574.423 1009.58> 1280 81<716.091 871.293 1256.09 1411.29>
VStem: 90 74<163.35 386.65> 473 98<-544.028 -146 -53 603 696 1099.74> 1013 98<-544.028 -146 -53 603 696 1099.74> 1420 74<163.35 386.65>
LayerCount: 2
Back
Fore
SplineSet
473 -53 m 1
 473 603 l 1
 420 590 369 571 321 543 c 0
 224 488 164 386 164 275 c 0
 164 164 224 62 321 7 c 0
 369 -21 420 -40 473 -53 c 1
1013 -72 m 1
 1013 622 l 1
 940 632 866 633 792 633 c 0
 718 633 644 632 571 622 c 1
 571 -72 l 1
 644 -82 718 -83 792 -83 c 0
 866 -83 940 -82 1013 -72 c 1
1420 275 m 0
 1420 386 1360 488 1263 543 c 0
 1215 571 1164 590 1111 603 c 1
 1111 -53 l 1
 1164 -40 1215 -21 1263 7 c 0
 1360 62 1420 164 1420 275 c 0
1433 1355 m 1
 1411 1274 l 1
 1385 1278 1358 1280 1331 1280 c 0
 1190 1280 1111 1129 1111 973 c 2
 1111 680 l 1
 1184 664 1254 639 1319 599 c 0
 1430 530 1494 406 1494 275 c 0
 1494 144 1430 20 1319 -49 c 0
 1254 -89 1184 -114 1111 -130 c 1
 1111 -418 l 2
 1111 -635 934 -811 718 -811 c 0
 716 -811 715 -811 713 -811 c 1
 701 -728 l 1
 783 -728 l 2
 927 -728 1013 -576 1013 -418 c 2
 1013 -146 l 1
 940 -155 866 -157 792 -157 c 0
 718 -157 644 -155 571 -146 c 1
 571 -418 l 2
 571 -635 394 -811 178 -811 c 0
 176 -811 175 -811 173 -811 c 1
 161 -728 l 1
 243 -728 l 2
 387 -728 473 -576 473 -418 c 2
 473 -130 l 1
 400 -114 330 -89 266 -49 c 0
 154 20 90 144 90 275 c 0
 90 406 154 530 266 599 c 0
 330 639 400 664 473 680 c 1
 473 973 l 2
 473 1174 616 1349 812 1361 c 0
 816 1361 822 1361 826 1361 c 2
 893 1355 l 1
 871 1274 l 1
 845 1278 818 1280 791 1280 c 0
 650 1280 571 1129 571 973 c 2
 571 696 l 1
 644 705 718 707 792 707 c 0
 866 707 940 705 1013 696 c 1
 1013 973 l 2
 1013 1174 1156 1349 1352 1361 c 0
 1356 1361 1362 1361 1366 1361 c 2
 1433 1355 l 1
EndSplineSet
EndChar

StartChar: uni2230
Encoding: 92 8752 92
Width: 1260
Flags: W
HStem: -328 71<140 233.781 440 533.781 740 833.781> 51 65<373 583.625 676.375 887> 434 65<373 583.625 676.375 887> 809 69<419.294 520.281 719.294 820.281 1019.29 1120.28>
VStem: 90 64<211.221 338.779> 287 86<-193.864 51 138 412 499 751.174> 587 86<-193.864 35 99 451 515 751.174> 887 86<-193.864 51 138 412 499 751.174> 1106 64<211.221 338.779>
LayerCount: 2
Back
Fore
SplineSet
287 412 m 1
 220 389 154 345 154 275 c 0
 154 205 220 161 287 138 c 1
 287 412 l 1
373 116 m 1
 443 103 515 100 587 99 c 1
 587 451 l 1
 515 450 443 447 373 434 c 1
 373 116 l 1
673 99 m 1
 745 100 817 103 887 116 c 1
 887 434 l 1
 817 447 745 450 673 451 c 1
 673 99 l 1
973 138 m 1
 1040 161 1106 205 1106 275 c 0
 1106 345 1040 389 973 412 c 1
 973 138 l 1
887 655 m 2
 887 777 977 878 1099 878 c 0
 1112 878 1126 876 1138 873 c 1
 1120 803 l 1
 1104 807 1088 809 1072 809 c 0
 1005 809 973 731 973 655 c 2
 973 478 l 1
 994 471 1015 464 1035 455 c 0
 1110 422 1170 356 1170 275 c 0
 1170 194 1110 128 1035 95 c 0
 1015 86 994 79 973 72 c 1
 973 -100 l 2
 973 -226 871 -328 745 -328 c 0
 743 -328 742 -328 740 -328 c 1
 730 -257 l 1
 778 -257 l 2
 849 -257 887 -179 887 -100 c 2
 887 51 l 1
 817 39 745 36 673 35 c 1
 673 -100 l 2
 673 -226 571 -328 445 -328 c 0
 443 -328 442 -328 440 -328 c 1
 430 -257 l 1
 478 -257 l 2
 549 -257 587 -179 587 -100 c 2
 587 35 l 1
 515 36 443 39 373 51 c 1
 373 -100 l 2
 373 -226 271 -328 145 -328 c 0
 143 -328 142 -328 140 -328 c 1
 130 -257 l 1
 178 -257 l 2
 249 -257 287 -179 287 -100 c 2
 287 72 l 1
 266 79 245 86 225 95 c 0
 150 128 90 194 90 275 c 0
 90 356 150 422 225 455 c 0
 245 464 266 471 287 478 c 1
 287 655 l 2
 287 777 377 878 499 878 c 0
 512 878 526 876 538 873 c 1
 520 803 l 1
 504 807 488 809 472 809 c 0
 405 809 373 731 373 655 c 2
 373 499 l 1
 443 511 515 514 587 515 c 1
 587 655 l 2
 587 777 677 878 799 878 c 0
 812 878 826 876 838 873 c 1
 820 803 l 1
 804 807 788 809 772 809 c 0
 705 809 673 731 673 655 c 2
 673 515 l 1
 745 514 817 511 887 499 c 1
 887 655 l 2
EndSplineSet
EndChar

StartChar: uni2230.disp
Encoding: 93 -1 93
Width: 1864
Flags: W
HStem: -811 83<173 303.641 713 843.641 1253 1383.64> -123 76<571 707.514 1416.49 1553> 597 76<571 707.514 1416.49 1553> 1280 81<716.091 871.293 1256.09 1411.29 1796.09 1951.29>
VStem: 90 74<182.575 367.425> 473 98<-544.028 -123 -22 572 673 1099.74> 1013 98<-544.028 -157 -83 633 707 1099.74> 1553 98<-544.028 -123 -22 572 673 1099.74> 1960 74<182.575 367.425>
LayerCount: 2
Back
Fore
SplineSet
473 -22 m 1
 473 572 l 1
 445 563 417 554 389 543 c 0
 268 495 164 401 164 275 c 0
 164 149 268 55 389 7 c 0
 417 -4 445 -13 473 -22 c 1
571 -47 m 1
 715 -77 865 -82 1013 -83 c 1
 1013 633 l 1
 865 632 715 627 571 597 c 1
 571 -47 l 1
1111 -83 m 1
 1259 -82 1409 -77 1553 -47 c 1
 1553 597 l 1
 1409 627 1259 632 1111 633 c 1
 1111 -83 l 1
1960 275 m 0
 1960 401 1856 495 1735 543 c 0
 1707 554 1679 563 1651 572 c 1
 1651 -22 l 1
 1679 -13 1707 -4 1735 7 c 0
 1856 55 1960 149 1960 275 c 0
1973 1355 m 1
 1951 1274 l 1
 1925 1278 1898 1280 1871 1280 c 0
 1730 1280 1651 1129 1651 973 c 2
 1651 649 l 1
 1699 636 1745 619 1791 599 c 0
 1927 539 2034 421 2034 275 c 0
 2034 129 1927 11 1791 -49 c 0
 1745 -69 1699 -86 1651 -99 c 1
 1651 -418 l 2
 1651 -635 1474 -811 1258 -811 c 0
 1256 -811 1255 -811 1253 -811 c 1
 1241 -728 l 1
 1323 -728 l 2
 1467 -728 1553 -576 1553 -418 c 2
 1553 -123 l 1
 1409 -151 1259 -156 1111 -157 c 1
 1111 -418 l 2
 1111 -635 934 -811 718 -811 c 0
 716 -811 715 -811 713 -811 c 1
 701 -728 l 1
 783 -728 l 2
 927 -728 1013 -576 1013 -418 c 2
 1013 -157 l 1
 865 -156 715 -151 571 -123 c 1
 571 -418 l 2
 571 -635 394 -811 178 -811 c 0
 176 -811 175 -811 173 -811 c 1
 161 -728 l 1
 243 -728 l 2
 387 -728 473 -576 473 -418 c 2
 473 -99 l 1
 425 -86 379 -69 333 -49 c 0
 198 11 90 129 90 275 c 0
 90 421 198 539 333 599 c 0
 379 619 425 636 473 649 c 1
 473 973 l 2
 473 1174 616 1349 812 1361 c 0
 816 1361 822 1361 826 1361 c 2
 893 1355 l 1
 871 1274 l 1
 845 1278 818 1280 791 1280 c 0
 650 1280 571 1129 571 973 c 2
 571 673 l 1
 715 701 865 706 1013 707 c 1
 1013 973 l 2
 1013 1174 1156 1349 1352 1361 c 0
 1356 1361 1362 1361 1366 1361 c 2
 1433 1355 l 1
 1411 1274 l 1
 1385 1278 1358 1280 1331 1280 c 0
 1190 1280 1111 1129 1111 973 c 2
 1111 707 l 1
 1259 706 1409 701 1553 673 c 1
 1553 973 l 2
 1553 1174 1696 1349 1892 1361 c 0
 1896 1361 1902 1361 1906 1361 c 2
 1973 1355 l 1
EndSplineSet
EndChar

StartChar: uni2233
Encoding: 94 8755 94
Width: 720
Flags: W
HStem: -328 71<140 233.781> 41 66<236.286 287 373 423.064> 448 66<239.091 287 373 423.391> 809 69<419.294 520.281>
VStem: 90 64<190.262 360.017> 287 86<-193.864 45.1831 107 448 509.817 751.174>
LayerCount: 2
Back
Fore
SplineSet
287 448 m 1
 227 433 184 390 165 337 c 0
 158 318 154 297 154 276 c 0
 154 186 215 125 287 107 c 1
 287 448 l 1
287 655 m 2
 287 777 377 878 499 878 c 0
 512 878 526 876 538 873 c 1
 520 803 l 1
 504 807 488 809 472 809 c 0
 405 809 373 731 373 655 c 2
 373 514 l 1
 455 499 516 447 548 379 c 1
 490 352 l 1
 468 399 426 434 373 448 c 1
 373 107 l 1
 435 123 478 166 497 223 c 1
 426 182 l 1
 399 228 l 1
 548 314 l 1
 569 277 l 1
 570 277 l 2
 570 276 l 2
 634 165 l 1
 588 138 l 1
 556 194 l 1
 528 118 462 57 373 41 c 1
 373 -100 l 2
 373 -226 271 -328 145 -328 c 0
 143 -328 142 -328 140 -328 c 1
 130 -257 l 1
 178 -257 l 2
 249 -257 287 -179 287 -100 c 2
 287 41 l 1
 205 56 144 108 112 176 c 0
 97 208 90 243 90 278 c 0
 90 305 95 333 104 359 c 0
 132 436 197 498 287 514 c 1
 287 655 l 2
EndSplineSet
EndChar

StartChar: uni2233.disp
Encoding: 95 -1 95
Width: 892
Flags: W
HStem: -811 83<173 303.641> -152 75<391.616 473 571 652.767> 632 75<391.233 473 571 652.384> 1280 81<716.091 871.293>
VStem: 90 74<155.89 398.895> 473 98<-544.028 -149.074 -77 632 704.174 1099.74>
LayerCount: 2
Back
Fore
SplineSet
473 632 m 1
 438 627 404 617 371 602 c 0
 285 562 218 489 186 400 c 0
 171 361 164 319 164 278 c 0
 164 226 176 174 198 126 c 0
 238 40 310 -26 400 -59 c 0
 424 -68 448 -74 473 -77 c 1
 473 632 l 1
914 460 m 1
 846 429 l 1
 806 515 734 581 644 614 c 0
 620 623 596 629 571 632 c 1
 571 -77 l 1
 606 -72 640 -62 673 -47 c 0
 759 -7 826 66 858 155 c 0
 866 175 871 196 875 217 c 1
 706 120 l 1
 675 174 l 1
 928 320 l 1
 952 278 l 1
 954 278 l 1
 954 277 954 276 954 275 c 2
 1074 67 l 1
 1021 36 l 1
 941 174 l 1
 908 41 821 -59 705 -114 c 0
 662 -134 617 -147 571 -152 c 1
 571 -418 l 2
 571 -635 394 -811 178 -811 c 0
 176 -811 175 -811 173 -811 c 1
 161 -728 l 1
 243 -728 l 2
 387 -728 473 -576 473 -418 c 2
 473 -152 l 1
 439 -148 406 -140 374 -128 c 0
 267 -89 179 -9 130 95 c 0
 103 153 90 215 90 277 c 0
 90 327 99 377 116 425 c 0
 155 533 236 621 339 669 c 0
 382 689 427 702 473 707 c 1
 473 973 l 2
 473 1174 616 1349 812 1361 c 0
 816 1361 822 1361 826 1361 c 2
 893 1355 l 1
 871 1274 l 1
 845 1278 818 1280 791 1280 c 0
 650 1280 571 1129 571 973 c 2
 571 707 l 1
 605 703 638 696 670 684 c 0
 777 644 865 564 914 460 c 1
EndSplineSet
EndChar

StartChar: uni2232.alt
Encoding: 96 -1 96
Width: 720
Flags: W
HStem: -328 71<140 233.781> 41 66<236.286 287 373 423.854> 448 66<239.091 287 373 423.768> 809 69<419.294 520.281>
VStem: 90 64<190.262 360.017> 287 86<-193.864 45.1831 107 448 509.457 751.174>
LayerCount: 2
Back
Fore
SplineSet
287 448 m 1
 227 433 184 390 165 337 c 0
 158 318 154 297 154 276 c 0
 154 186 215 125 287 107 c 1
 287 448 l 1
287 655 m 2
 287 777 377 878 499 878 c 0
 512 878 526 876 538 873 c 1
 520 803 l 1
 504 807 488 809 472 809 c 0
 405 809 373 731 373 655 c 2
 373 514 l 1
 461 498 527 438 555 360 c 1
 588 416 l 1
 634 390 l 1
 570 279 l 2
 570 278 570 278 570 277 c 2
 569 277 l 1
 548 241 l 1
 399 327 l 1
 426 373 l 1
 497 332 l 1
 479 391 433 433 373 448 c 1
 373 107 l 1
 433 122 475 163 495 217 c 1
 556 195 l 1
 528 119 462 57 373 41 c 1
 373 -100 l 2
 373 -226 271 -328 145 -328 c 0
 143 -328 142 -328 140 -328 c 1
 130 -257 l 1
 178 -257 l 2
 249 -257 287 -179 287 -100 c 2
 287 41 l 1
 205 56 144 108 112 176 c 0
 97 208 90 243 90 278 c 0
 90 305 95 333 104 359 c 0
 132 436 197 498 287 514 c 1
 287 655 l 2
EndSplineSet
EndChar

StartChar: uni2232.alt.disp
Encoding: 97 -1 97
Width: 892
Flags: W
HStem: -811 83<173 303.641> -152 75<391.616 473 571 652.767> 632 75<391.233 473 571 652.384> 1280 81<716.091 871.293>
VStem: 90 74<155.89 398.895> 473 98<-544.028 -149.074 -77 632 704.174 1099.74>
LayerCount: 2
Back
Fore
SplineSet
473 632 m 1
 438 627 404 617 371 602 c 0
 285 562 218 489 186 400 c 0
 171 361 164 319 164 278 c 0
 164 226 176 174 198 126 c 0
 238 40 310 -26 400 -59 c 0
 424 -68 448 -74 473 -77 c 1
 473 632 l 1
928 235 m 1
 675 382 l 1
 706 435 l 1
 875 338 l 1
 870 370 860 400 846 429 c 0
 806 515 734 581 644 614 c 0
 620 623 596 629 571 632 c 1
 571 -77 l 1
 606 -72 640 -62 673 -47 c 0
 759 -7 826 66 858 155 c 1
 928 130 l 1
 889 22 808 -65 705 -114 c 0
 662 -134 617 -147 571 -152 c 1
 571 -418 l 2
 571 -635 394 -811 178 -811 c 0
 176 -811 175 -811 173 -811 c 1
 161 -728 l 1
 243 -728 l 2
 387 -728 473 -576 473 -418 c 2
 473 -152 l 1
 439 -148 406 -140 374 -128 c 0
 267 -89 179 -9 130 95 c 0
 103 153 90 215 90 277 c 0
 90 327 99 377 116 425 c 0
 155 533 236 621 339 669 c 0
 382 689 427 702 473 707 c 1
 473 973 l 2
 473 1174 616 1349 812 1361 c 0
 816 1361 822 1361 826 1361 c 2
 893 1355 l 1
 871 1274 l 1
 845 1278 818 1280 791 1280 c 0
 650 1280 571 1129 571 973 c 2
 571 707 l 1
 605 703 638 696 670 684 c 0
 801 635 905 528 941 381 c 1
 1021 519 l 1
 1074 489 l 1
 954 280 l 2
 954 279 954 279 954 278 c 2
 953 278 l 1
 928 235 l 1
EndSplineSet
EndChar

StartChar: uni2233.alt
Encoding: 98 -1 98
Width: 720
Flags: W
HStem: -328 71<200 293.781> 41 66<296.609 347 433 483.854> 448 66<296.936 347 433 483.714> 809 69<479.294 580.281>
VStem: 347 86<-193.864 45.1831 107 448 509.817 751.174> 566 64<193.849 363.616>
LayerCount: 2
Back
Fore
SplineSet
433 107 m 1
 493 122 535 163 555 217 c 0
 562 237 566 257 566 278 c 0
 566 368 505 430 433 448 c 1
 433 107 l 1
347 655 m 2
 347 777 437 878 559 878 c 0
 572 878 586 876 598 873 c 1
 580 803 l 1
 564 807 548 809 532 809 c 0
 465 809 433 731 433 655 c 2
 433 514 l 1
 515 499 576 447 608 379 c 0
 623 347 630 312 630 277 c 0
 630 249 625 221 616 195 c 0
 588 119 522 57 433 41 c 1
 433 -100 l 2
 433 -226 331 -328 205 -328 c 0
 203 -328 202 -328 200 -328 c 1
 190 -257 l 1
 238 -257 l 2
 309 -257 347 -179 347 -100 c 2
 347 41 l 1
 265 56 204 108 172 176 c 1
 230 203 l 1
 252 156 294 121 347 107 c 1
 347 448 l 1
 285 432 242 388 223 332 c 1
 294 373 l 1
 321 327 l 1
 172 241 l 1
 151 277 l 1
 150 277 l 2
 150 278 150 278 150 279 c 2
 86 390 l 1
 132 416 l 1
 165 361 l 1
 193 437 258 498 347 514 c 1
 347 655 l 2
EndSplineSet
EndChar

StartChar: uni2233.alt.disp
Encoding: 99 -1 99
Width: 892
Flags: W
HStem: -811 83<281 411.641> -152 75<499.616 581 679 760.767> 632 75<499.233 581 679 760.384> 1280 81<824.091 979.293>
VStem: 581 98<-544.028 -149.074 -77 632 704.174 1099.74> 988 74<156.105 399.11>
LayerCount: 2
Back
Fore
SplineSet
679 -77 m 1
 714 -72 748 -62 781 -47 c 0
 867 -7 934 66 966 155 c 0
 981 194 988 236 988 277 c 0
 988 329 976 381 954 429 c 0
 914 515 842 581 752 614 c 0
 728 623 704 629 679 632 c 1
 679 -77 l 1
238 95 m 1
 306 126 l 1
 346 40 418 -26 508 -59 c 0
 532 -68 556 -74 581 -77 c 1
 581 632 l 1
 546 627 512 617 479 602 c 0
 393 562 326 489 294 400 c 0
 286 380 281 359 277 338 c 1
 446 435 l 1
 477 382 l 1
 224 235 l 1
 199 278 l 1
 198 278 l 2
 198 279 198 279 198 280 c 2
 78 489 l 1
 131 519 l 1
 211 381 l 1
 244 514 331 615 447 669 c 0
 490 689 535 702 581 707 c 1
 581 973 l 2
 581 1174 724 1349 920 1361 c 0
 924 1361 930 1361 934 1361 c 2
 1001 1355 l 1
 979 1274 l 1
 953 1278 926 1280 899 1280 c 0
 758 1280 679 1129 679 973 c 2
 679 707 l 1
 713 703 746 696 778 684 c 0
 885 644 973 564 1022 460 c 0
 1049 402 1062 340 1062 278 c 0
 1062 228 1053 178 1036 130 c 0
 997 22 916 -65 813 -114 c 0
 770 -134 725 -147 679 -152 c 1
 679 -418 l 2
 679 -635 502 -811 286 -811 c 0
 284 -811 283 -811 281 -811 c 1
 269 -728 l 1
 351 -728 l 2
 495 -728 581 -576 581 -418 c 2
 581 -152 l 1
 547 -148 514 -140 482 -128 c 0
 375 -89 287 -9 238 95 c 1
EndSplineSet
EndChar

StartChar: uni2232
Encoding: 100 8754 100
Width: 720
Flags: W
HStem: -328 71<200 293.781> 41 66<296.232 347 433 483.854> 448 66<299.091 347 433 483.714> 809 69<479.294 580.281>
VStem: 347 86<-193.864 45.509 107 448 509.817 751.174> 566 64<193.849 363.616>
LayerCount: 2
Back
Fore
SplineSet
433 107 m 1
 493 122 535 163 555 217 c 0
 562 237 566 257 566 278 c 0
 566 368 505 430 433 448 c 1
 433 107 l 1
347 655 m 2
 347 777 437 878 559 878 c 0
 572 878 586 876 598 873 c 1
 580 803 l 1
 564 807 548 809 532 809 c 0
 465 809 433 731 433 655 c 2
 433 514 l 1
 515 499 576 447 608 379 c 0
 623 347 630 312 630 277 c 0
 630 249 625 221 616 195 c 0
 588 119 522 57 433 41 c 1
 433 -100 l 2
 433 -226 331 -328 205 -328 c 0
 203 -328 202 -328 200 -328 c 1
 190 -257 l 1
 238 -257 l 2
 309 -257 347 -179 347 -100 c 2
 347 41 l 1
 259 57 193 115 165 194 c 1
 132 138 l 1
 86 165 l 1
 150 276 l 2
 150 277 l 2
 151 277 l 1
 172 314 l 1
 321 228 l 1
 294 182 l 1
 222 223 l 1
 240 164 287 122 347 107 c 1
 347 448 l 1
 287 433 244 390 225 337 c 1
 164 359 l 1
 192 436 257 498 347 514 c 1
 347 655 l 2
EndSplineSet
EndChar

StartChar: uni2232.disp
Encoding: 101 -1 101
Width: 892
Flags: W
HStem: -811 83<281 411.641> -152 75<499.616 581 679 760.767> 632 75<499.233 581 679 760.384> 1280 81<824.091 979.293>
VStem: 581 98<-544.028 -149.074 -77 632 704.174 1099.74> 988 74<156.105 399.11>
LayerCount: 2
Back
Fore
SplineSet
679 -77 m 1
 714 -72 748 -62 781 -47 c 0
 867 -7 934 66 966 155 c 0
 981 194 988 236 988 277 c 0
 988 329 976 381 954 429 c 0
 914 515 842 581 752 614 c 0
 728 623 704 629 679 632 c 1
 679 -77 l 1
224 320 m 1
 477 174 l 1
 446 120 l 1
 277 217 l 1
 282 186 292 155 306 126 c 0
 346 40 418 -26 508 -59 c 0
 532 -68 556 -74 581 -77 c 1
 581 632 l 1
 546 627 512 617 479 602 c 0
 393 562 326 489 294 400 c 1
 224 425 l 1
 263 533 344 621 447 669 c 0
 490 689 535 702 581 707 c 1
 581 973 l 2
 581 1174 724 1349 920 1361 c 0
 924 1361 930 1361 934 1361 c 2
 1001 1355 l 1
 979 1274 l 1
 953 1278 926 1280 899 1280 c 0
 758 1280 679 1129 679 973 c 2
 679 707 l 1
 713 703 746 696 778 684 c 0
 885 644 973 564 1022 460 c 0
 1049 402 1062 340 1062 278 c 0
 1062 228 1053 178 1036 130 c 0
 997 22 916 -65 813 -114 c 0
 770 -134 725 -147 679 -152 c 1
 679 -418 l 2
 679 -635 502 -811 286 -811 c 0
 284 -811 283 -811 281 -811 c 1
 269 -728 l 1
 351 -728 l 2
 495 -728 581 -576 581 -418 c 2
 581 -152 l 1
 547 -148 514 -140 482 -128 c 0
 351 -80 247 27 211 174 c 1
 131 36 l 1
 78 67 l 1
 198 275 l 2
 198 276 198 277 198 278 c 1
 200 278 l 1
 224 320 l 1
EndSplineSet
EndChar

StartChar: uni2A0B
Encoding: 102 10763 102
Width: 630
Flags: W
HStem: -328 71<140 233.781> -5 60<271.857 287 373 397.5> 511 49<198 287 373 463.352> 809 69<419.294 520.281>
VStem: 287 86<-193.864 -5 61 192 384 509 560 751.174> 492 27<450 472.984> 506 26<86.0473 103.615>
LayerCount: 2
Back
Fore
SplineSet
287 192 m 1xf8
 181 48 l 1
 287 55 l 1
 287 192 l 1xf8
287 510 m 1
 198 511 l 1
 287 384 l 1
 287 510 l 1
287 655 m 2
 287 777 377 878 499 878 c 0
 512 878 526 876 538 873 c 1
 520 803 l 1
 504 807 488 809 472 809 c 0
 405 809 373 731 373 655 c 2
 373 560 l 1
 519 560 l 1
 519 450 l 1
 492 450 l 1xfc
 478 483 449 508 414 508 c 2
 373 509 l 1
 373 61 l 1
 401 63 l 2
 445 66 497 69 506 108 c 1
 532 102 l 1xfa
 502 -5 l 1
 373 -5 l 1
 373 -100 l 2
 373 -226 271 -328 145 -328 c 0
 143 -328 142 -328 140 -328 c 1
 130 -257 l 1
 178 -257 l 2
 249 -257 287 -179 287 -100 c 2
 287 -5 l 1
 111 -5 l 1
 99 48 l 1
 261 269 l 1
 99 500 l 1
 112 560 l 1
 287 560 l 1
 287 655 l 2
EndSplineSet
EndChar

StartChar: uni2A0B.disp
Encoding: 103 -1 103
Width: 882
Flags: W
HStem: -811 83<173 303.641> -231 72<369 473 571 672> -231 62<213 395> 728 59<232 473 571 797.917> 1280 81<716.091 871.293>
VStem: 473 98<-544.028 -231 -156 182 395 728 787 1099.74> 844 31<659 682.421>
LayerCount: 2
Back
Fore
SplineSet
473 182 m 1xde
 213 -169 l 1xbe
 473 -159 l 1
 473 182 l 1xde
473 728 m 1
 232 730 l 1
 473 395 l 1
 473 728 l 1
134 -231 m 1
 119 -169 l 1
 443 268 l 1
 119 718 l 1
 135 787 l 1
 473 787 l 1
 473 973 l 2
 473 1174 616 1349 812 1361 c 0
 816 1361 822 1361 826 1361 c 2
 893 1355 l 1
 871 1274 l 1
 845 1278 818 1280 791 1280 c 0
 650 1280 571 1129 571 973 c 2
 571 787 l 1
 875 787 l 1
 875 659 l 1
 844 659 l 1
 820 716 750 726 686 727 c 2
 571 728 l 1
 571 -156 l 1
 672 -152 l 2
 749 -149 850 -145 860 -100 c 1
 890 -107 l 1
 856 -231 l 1xbe
 571 -231 l 1
 571 -418 l 2
 571 -635 394 -811 178 -811 c 0
 176 -811 175 -811 173 -811 c 1
 161 -728 l 1
 243 -728 l 2
 387 -728 473 -576 473 -418 c 2
 473 -231 l 1xde
 134 -231 l 1
EndSplineSet
EndChar

StartChar: uni2A0B.sf
Encoding: 104 -1 104
Width: 630
Flags: W
HStem: -328 71<140 233.781> -5 73<195 287 373 519> 487 73<195 287 373 519> 809 69<419.294 520.281>
VStem: 287 86<-193.864 -5 68 187 368 487 560 751.174>
LayerCount: 2
Back
Fore
SplineSet
287 187 m 1
 195 68 l 1
 287 68 l 1
 287 187 l 1
287 487 m 1
 195 487 l 1
 287 368 l 1
 287 487 l 1
287 655 m 2
 287 777 377 878 499 878 c 0
 512 878 526 876 538 873 c 1
 520 803 l 1
 504 807 488 809 472 809 c 0
 405 809 373 731 373 655 c 2
 373 560 l 1
 519 560 l 1
 519 487 l 1
 373 487 l 1
 373 68 l 1
 519 68 l 1
 519 -5 l 1
 373 -5 l 1
 373 -100 l 2
 373 -226 271 -328 145 -328 c 0
 143 -328 142 -328 140 -328 c 1
 130 -257 l 1
 178 -257 l 2
 249 -257 287 -179 287 -100 c 2
 287 -5 l 1
 99 -5 l 1
 99 68 l 1
 260 277 l 1
 99 487 l 1
 99 560 l 1
 287 560 l 1
 287 655 l 2
EndSplineSet
EndChar

StartChar: uni2A0B.sf.disp
Encoding: 105 -1 105
Width: 882
Flags: W
HStem: -811 83<173 303.641> -231 85<229 473 571 875> 702 85<229 473 571 875> 1280 81<716.091 871.293>
VStem: 473 98<-544.028 -231 -146 174 382 702 787 1099.74>
LayerCount: 2
Back
Fore
SplineSet
473 174 m 1
 229 -146 l 1
 473 -146 l 1
 473 174 l 1
473 702 m 1
 229 702 l 1
 473 382 l 1
 473 702 l 1
119 -231 m 1
 119 -146 l 1
 443 278 l 1
 119 702 l 1
 119 787 l 1
 473 787 l 1
 473 973 l 2
 473 1174 616 1349 812 1361 c 0
 816 1361 822 1361 826 1361 c 2
 893 1355 l 1
 871 1274 l 1
 845 1278 818 1280 791 1280 c 0
 650 1280 571 1129 571 973 c 2
 571 787 l 1
 875 787 l 1
 875 702 l 1
 571 702 l 1
 571 -146 l 1
 875 -146 l 1
 875 -231 l 1
 571 -231 l 1
 571 -418 l 2
 571 -635 394 -811 178 -811 c 0
 176 -811 175 -811 173 -811 c 1
 161 -728 l 1
 243 -728 l 2
 387 -728 473 -576 473 -418 c 2
 473 -231 l 1
 119 -231 l 1
EndSplineSet
EndChar

StartChar: uni0302
Encoding: 114 770 106
Width: 420
Flags: W
HStem: 661 164
LayerCount: 2
Back
Fore
SplineSet
-13 719 m 1
 210 825 l 1
 433 719 l 1
 407 661 l 1
 210 748 l 1
 13 661 l 1
 -13 719 l 1
EndSplineSet
EndChar

StartChar: uni0302.big1
Encoding: 115 -1 107
Width: 756
Flags: W
HStem: 659 62<6.19355 17.9808 738.019 749.806>
LayerCount: 2
Back
Fore
SplineSet
-8 721 m 1
 378 825 l 1
 764 721 l 1
 748 659 l 1
 378 748 l 1
 8 659 l 1
 -8 721 l 1
EndSplineSet
EndChar

StartChar: uni0302.big2
Encoding: 116 -1 108
Width: 1092
Flags: W
HStem: 658 64<4.6875 31.5146 1060.49 1087.31>
LayerCount: 2
Back
Fore
SplineSet
-6 722 m 1
 546 825 l 1
 1098 722 l 1
 1086 658 l 1
 546 748 l 1
 6 658 l 1
 -6 722 l 1
EndSplineSet
EndChar

StartChar: uni0302.big3
Encoding: 117 -1 109
Width: 1428
Flags: W
HStem: 658 167
LayerCount: 2
Back
Fore
SplineSet
-4 722 m 1
 714 825 l 1
 1432 722 l 1
 1424 658 l 1
 714 748 l 1
 4 658 l 1
 -4 722 l 1
EndSplineSet
EndChar

StartChar: uni0302.big4
Encoding: 118 -1 110
Width: 1764
Flags: W
HStem: 658 167
LayerCount: 2
Back
Fore
SplineSet
-3 722 m 1
 882 825 l 1
 1767 722 l 1
 1761 658 l 1
 882 748 l 1
 3 658 l 1
 -3 722 l 1
EndSplineSet
EndChar

StartChar: uni0302.big5
Encoding: 119 -1 111
Width: 2100
Flags: W
HStem: 658 167
LayerCount: 2
Back
Fore
SplineSet
-3 722 m 1
 1050 825 l 1
 2103 722 l 1
 2097 658 l 1
 1050 748 l 1
 3 658 l 1
 -3 722 l 1
EndSplineSet
EndChar

StartChar: uni0303
Encoding: 120 771 112
Width: 420
Flags: W
HStem: 658 64<251.752 351.969> 754 64<68.0315 168.248>
LayerCount: 2
Back
Fore
SplineSet
40 703 m 1
 0 738 l 1
 33 776 66 818 116 818 c 0
 161 818 200 792 232 761 c 0
 253 741 276 722 304 722 c 0
 336 722 359 749 380 773 c 1
 420 738 l 1
 387 701 354 658 304 658 c 0
 259 658 220 684 188 715 c 0
 167 735 144 754 116 754 c 0
 84 754 61 727 40 703 c 1
EndSplineSet
EndChar

StartChar: uni0303.big1
Encoding: 121 -1 113
Width: 756
Flags: W
HStem: 658 64<444.601 650.879> 754 64<105.121 311.399>
LayerCount: 2
Back
Fore
SplineSet
29 693 m 1
 0 738 l 1
 62 777 126 818 200 818 c 0
 267 818 333 798 393 767 c 0
 444 740 499 722 556 722 c 0
 618 722 675 750 727 783 c 1
 756 738 l 1
 694 699 630 658 556 658 c 0
 489 658 423 679 363 710 c 0
 312 736 257 754 200 754 c 0
 138 754 81 726 29 693 c 1
EndSplineSet
EndChar

StartChar: uni0303.big2
Encoding: 122 -1 114
Width: 1092
Flags: W
HStem: 658 64<640.855 941.108> 754 64<150.955 453.098>
LayerCount: 2
Back
Fore
SplineSet
22 689 m 1
 0 738 l 1
 91 778 184 818 284 818 c 0
 377 818 468 798 556 768 c 0
 638 741 722 722 808 722 c 0
 899 722 987 750 1071 787 c 1
 1092 738 l 1
 1001 698 908 658 808 658 c 0
 715 658 624 678 536 708 c 0
 454 736 370 754 284 754 c 0
 193 754 105 726 22 689 c 1
EndSplineSet
EndChar

StartChar: uni0303.big3
Encoding: 123 -1 115
Width: 1428
Flags: W
HStem: 658 64<840.224 1231.02> 754 64<197.163 587.776>
LayerCount: 2
Back
Fore
SplineSet
17 688 m 1
 0 738 l 1
 120 778 241 818 368 818 c 0
 487 818 605 797 722 769 c 0
 833 742 946 722 1060 722 c 0
 1180 722 1298 750 1411 789 c 1
 1428 738 l 1
 1308 698 1187 658 1060 658 c 0
 941 658 823 679 706 707 c 0
 595 734 482 754 368 754 c 0
 248 754 131 726 17 688 c 1
EndSplineSet
EndChar

StartChar: uni0303.big4
Encoding: 124 -1 116
Width: 1764
Flags: W
HStem: 658 64<1084.53 1519.31> 754 64<237.732 679.538>
LayerCount: 2
Back
Fore
SplineSet
1312 658 m 0
 1023 658 742 754 452 754 c 0
 303 754 157 726 14 687 c 1
 0 738 l 1
 148 779 298 818 452 818 c 0
 598 818 744 796 888 770 c 0
 1028 744 1170 722 1312 722 c 0
 1461 722 1607 751 1750 790 c 1
 1764 738 l 1
 1616 698 1466 658 1312 658 c 0
EndSplineSet
EndChar

StartChar: uni0303.big5
Encoding: 125 -1 117
Width: 2100
Flags: W
HStem: 658 64<1338.6 1789.46> 754 64<310.539 761.404>
LayerCount: 2
Back
Fore
SplineSet
1564 658 m 0
 1219 658 880 754 536 754 c 0
 359 754 184 726 12 686 c 1
 0 738 l 1
 177 779 354 818 536 818 c 0
 881 818 1220 722 1564 722 c 0
 1741 722 1916 751 2088 790 c 1
 2100 738 l 1
 1923 698 1746 658 1564 658 c 0
EndSplineSet
EndChar

StartChar: uni0311
Encoding: 126 785 118
Width: 420
Flags: W
HStem: 754 64<127.326 292.674>
LayerCount: 2
Back
Fore
SplineSet
48 669 m 1
 0 711 l 1
 54 773 128 818 210 818 c 0
 292 818 366 773 420 711 c 1
 372 669 l 1
 330 717 274 754 210 754 c 0
 146 754 90 717 48 669 c 1
EndSplineSet
EndChar

StartChar: uni0311.big1
Encoding: 127 -1 119
Width: 756
Flags: W
HStem: 754 64<199.016 556.984>
LayerCount: 2
Back
Fore
SplineSet
34 663 m 1
 0 717 l 1
 112 788 245 818 378 818 c 0
 511 818 644 788 756 717 c 1
 722 663 l 1
 620 728 499 754 378 754 c 0
 257 754 136 728 34 663 c 1
EndSplineSet
EndChar

StartChar: uni0311.big2
Encoding: 128 -1 120
Width: 1092
Flags: W
HStem: 754 64<320.133 771.867>
LayerCount: 2
Back
Fore
SplineSet
26 661 m 1
 0 719 l 1
 171 795 359 818 546 818 c 0
 733 818 921 795 1092 719 c 1
 1066 661 l 1
 903 733 724 754 546 754 c 0
 368 754 189 733 26 661 c 1
EndSplineSet
EndChar

StartChar: uni0311.big3
Encoding: 129 -1 121
Width: 1428
Flags: W
HStem: 754 64<490.556 937.444>
LayerCount: 2
Back
Fore
SplineSet
20 660 m 1
 0 720 l 1
 229 798 472 818 714 818 c 0
 956 818 1199 798 1428 720 c 1
 1408 660 l 1
 1185 735 949 754 714 754 c 0
 479 754 243 735 20 660 c 1
EndSplineSet
EndChar

StartChar: uni0311.big4
Encoding: 130 -1 122
Width: 1764
Flags: W
HStem: 659 62<15.0806 80.9989 1683 1748.92> 754 64<661.422 1102.58>
LayerCount: 2
Back
Fore
SplineSet
17 659 m 1
 0 721 l 1
 287 799 585 818 882 818 c 0
 1179 818 1477 799 1764 721 c 1
 1747 659 l 1
 1466 736 1173 754 882 754 c 0
 591 754 298 736 17 659 c 1
EndSplineSet
EndChar

StartChar: uni0311.big5
Encoding: 131 -1 123
Width: 2100
Flags: W
HStem: 659 62<12.4194 93.631 2006.37 2087.58> 754 64<828.281 1271.72>
LayerCount: 2
Back
Fore
SplineSet
14 659 m 1
 0 721 l 1
 344 800 697 818 1050 818 c 0
 1403 818 1756 800 2100 721 c 1
 2086 659 l 1
 1747 737 1398 754 1050 754 c 0
 702 754 353 737 14 659 c 1
EndSplineSet
EndChar

StartChar: uni20D7
Encoding: 132 8407 124
Width: 450
Flags: W
HStem: 714 48<90 368>
LayerCount: 2
Back
Fore
SplineSet
460 738 m 1
 363 641 l 1
 329 675 l 1
 368 714 l 1
 90 714 l 1
 90 762 l 1
 368 762 l 1
 329 801 l 1
 363 835 l 1
 460 738 l 1
EndSplineSet
EndChar

StartChar: uni0335
Encoding: 133 821 125
Width: 300
Flags: W
HStem: 311 54<2 298>
VStem: -2 304
LayerCount: 2
Back
Fore
SplineSet
2 365 m 1
 302 365 l 1
 298 311 l 1
 -2 311 l 1
 2 365 l 1
EndSplineSet
EndChar

StartChar: uni0337
Encoding: 134 823 126
Width: 300
Flags: W
HStem: 242 192
VStem: -3 306
LayerCount: 2
Back
Fore
SplineSet
3 306 m 1
 303 434 l 1
 297 370 l 1
 -3 242 l 1
 3 306 l 1
EndSplineSet
EndChar

StartChar: uni0338
Encoding: 135 824 127
Width: 480
Flags: W
LayerCount: 2
Back
Fore
SplineSet
476 680 m 1
 64 -451 l 1
 4 -429 l 1
 416 702 l 1
 476 680 l 1
EndSplineSet
EndChar
